<svg width="1363" height="167" viewBox="0 0 1363 167" fill="none" xmlns="http://www.w3.org/2000/svg">
<rect width="1363" height="167" rx="15" fill="#F0F0F0"/>
<path d="M0 15C0 6.71573 6.71573 0 15 0H37V167H15C6.71573 167 0 160.284 0 152V15Z" fill="#14281D"/>
<path d="M100.906 54.9219L93.3945 52.2383V49.0859L103.602 53.375V55.6367L100.906 54.9219ZM93.3945 57.1719L100.918 54.4297L103.602 53.7852V56.0352L93.3945 60.3242V57.1719ZM118.578 54.5117H114.195L114.172 52.0977H117.852C118.5 52.0977 119.031 52.0156 119.445 51.8516C119.859 51.6797 120.168 51.4336 120.371 51.1133C120.582 50.7852 120.688 50.3867 120.688 49.918C120.688 49.3867 120.586 48.957 120.383 48.6289C120.188 48.3008 119.879 48.0625 119.457 47.9141C119.043 47.7656 118.508 47.6914 117.852 47.6914H115.414V62H111.898V44.9375H117.852C118.844 44.9375 119.73 45.0312 120.512 45.2188C121.301 45.4062 121.969 45.6914 122.516 46.0742C123.062 46.457 123.48 46.9414 123.77 47.5273C124.059 48.1055 124.203 48.793 124.203 49.5898C124.203 50.293 124.043 50.9414 123.723 51.5352C123.41 52.1289 122.914 52.6133 122.234 52.9883C121.562 53.3633 120.684 53.5703 119.598 53.6094L118.578 54.5117ZM118.426 62H113.234L114.605 59.2578H118.426C119.043 59.2578 119.547 59.1602 119.938 58.9648C120.328 58.7617 120.617 58.4883 120.805 58.1445C120.992 57.8008 121.086 57.4062 121.086 56.9609C121.086 56.4609 121 56.0273 120.828 55.6602C120.664 55.293 120.398 55.0117 120.031 54.8164C119.664 54.6133 119.18 54.5117 118.578 54.5117H115.191L115.215 52.0977H119.434L120.242 53.0469C121.281 53.0312 122.117 53.2148 122.75 53.5977C123.391 53.9727 123.855 54.4609 124.145 55.0625C124.441 55.6641 124.59 56.3086 124.59 56.9961C124.59 58.0898 124.352 59.0117 123.875 59.7617C123.398 60.5039 122.699 61.0625 121.777 61.4375C120.863 61.8125 119.746 62 118.426 62ZM134.516 58.9648V49.3203H137.891V62H134.715L134.516 58.9648ZM134.891 56.3633L135.887 56.3398C135.887 57.1836 135.789 57.9688 135.594 58.6953C135.398 59.4141 135.105 60.0391 134.715 60.5703C134.324 61.0938 133.832 61.5039 133.238 61.8008C132.645 62.0898 131.945 62.2344 131.141 62.2344C130.523 62.2344 129.953 62.1484 129.43 61.9766C128.914 61.7969 128.469 61.5195 128.094 61.1445C127.727 60.7617 127.438 60.2734 127.227 59.6797C127.023 59.0781 126.922 58.3555 126.922 57.5117V49.3203H130.297V57.5352C130.297 57.9102 130.34 58.2266 130.426 58.4844C130.52 58.7422 130.648 58.9531 130.812 59.1172C130.977 59.2812 131.168 59.3984 131.387 59.4688C131.613 59.5391 131.863 59.5742 132.137 59.5742C132.832 59.5742 133.379 59.4336 133.777 59.1523C134.184 58.8711 134.469 58.4883 134.633 58.0039C134.805 57.5117 134.891 56.9648 134.891 56.3633ZM146.68 49.3203V51.7109H139.297V49.3203H146.68ZM141.125 46.1914H144.5V58.1797C144.5 58.5469 144.547 58.8281 144.641 59.0234C144.742 59.2188 144.891 59.3555 145.086 59.4336C145.281 59.5039 145.527 59.5391 145.824 59.5391C146.035 59.5391 146.223 59.5312 146.387 59.5156C146.559 59.4922 146.703 59.4688 146.82 59.4453L146.832 61.9297C146.543 62.0234 146.23 62.0977 145.895 62.1523C145.559 62.207 145.188 62.2344 144.781 62.2344C144.039 62.2344 143.391 62.1133 142.836 61.8711C142.289 61.6211 141.867 61.2227 141.57 60.6758C141.273 60.1289 141.125 59.4102 141.125 58.5195V46.1914ZM152.164 44V62H148.777V44H152.164ZM160.789 62.2344C159.805 62.2344 158.922 62.0781 158.141 61.7656C157.359 61.4453 156.695 61.0039 156.148 60.4414C155.609 59.8789 155.195 59.2266 154.906 58.4844C154.617 57.7344 154.473 56.9375 154.473 56.0938V55.625C154.473 54.6641 154.609 53.7852 154.883 52.9883C155.156 52.1914 155.547 51.5 156.055 50.9141C156.57 50.3281 157.195 49.8789 157.93 49.5664C158.664 49.2461 159.492 49.0859 160.414 49.0859C161.312 49.0859 162.109 49.2344 162.805 49.5312C163.5 49.8281 164.082 50.25 164.551 50.7969C165.027 51.3438 165.387 52 165.629 52.7656C165.871 53.5234 165.992 54.3672 165.992 55.2969V56.7031H155.914V54.4531H162.676V54.1953C162.676 53.7266 162.59 53.3086 162.418 52.9414C162.254 52.5664 162.004 52.2695 161.668 52.0508C161.332 51.832 160.902 51.7227 160.379 51.7227C159.934 51.7227 159.551 51.8203 159.23 52.0156C158.91 52.2109 158.648 52.4844 158.445 52.8359C158.25 53.1875 158.102 53.6016 158 54.0781C157.906 54.5469 157.859 55.0625 157.859 55.625V56.0938C157.859 56.6016 157.93 57.0703 158.07 57.5C158.219 57.9297 158.426 58.3008 158.691 58.6133C158.965 58.9258 159.293 59.168 159.676 59.3398C160.066 59.5117 160.508 59.5977 161 59.5977C161.609 59.5977 162.176 59.4805 162.699 59.2461C163.23 59.0039 163.688 58.6406 164.07 58.1562L165.711 59.9375C165.445 60.3203 165.082 60.6875 164.621 61.0391C164.168 61.3906 163.621 61.6797 162.98 61.9062C162.34 62.125 161.609 62.2344 160.789 62.2344ZM171.289 52.0859V62H167.914V49.3203H171.09L171.289 52.0859ZM175.109 49.2383L175.051 52.3672C174.887 52.3438 174.688 52.3242 174.453 52.3086C174.227 52.2852 174.02 52.2734 173.832 52.2734C173.355 52.2734 172.941 52.3359 172.59 52.4609C172.246 52.5781 171.957 52.7539 171.723 52.9883C171.496 53.2227 171.324 53.5078 171.207 53.8438C171.098 54.1797 171.035 54.5625 171.02 54.9922L170.34 54.7812C170.34 53.9609 170.422 53.207 170.586 52.5195C170.75 51.8242 170.988 51.2188 171.301 50.7031C171.621 50.1875 172.012 49.7891 172.473 49.5078C172.934 49.2266 173.461 49.0859 174.055 49.0859C174.242 49.0859 174.434 49.1016 174.629 49.1328C174.824 49.1562 174.984 49.1914 175.109 49.2383ZM186.805 56.3398H190.309C190.238 57.4883 189.922 58.5078 189.359 59.3984C188.805 60.2891 188.027 60.9844 187.027 61.4844C186.035 61.9844 184.84 62.2344 183.441 62.2344C182.348 62.2344 181.367 62.0469 180.5 61.6719C179.633 61.2891 178.891 60.7422 178.273 60.0312C177.664 59.3203 177.199 58.4609 176.879 57.4531C176.559 56.4453 176.398 55.3164 176.398 54.0664V52.8828C176.398 51.6328 176.562 50.5039 176.891 49.4961C177.227 48.4805 177.703 47.6172 178.32 46.9062C178.945 46.1953 179.691 45.6484 180.559 45.2656C181.426 44.8828 182.395 44.6914 183.465 44.6914C184.887 44.6914 186.086 44.9492 187.062 45.4648C188.047 45.9805 188.809 46.6914 189.348 47.5977C189.895 48.5039 190.223 49.5352 190.332 50.6914H186.816C186.777 50.0039 186.641 49.4219 186.406 48.9453C186.172 48.4609 185.816 48.0977 185.34 47.8555C184.871 47.6055 184.246 47.4805 183.465 47.4805C182.879 47.4805 182.367 47.5898 181.93 47.8086C181.492 48.0273 181.125 48.3594 180.828 48.8047C180.531 49.25 180.309 49.8125 180.16 50.4922C180.02 51.1641 179.949 51.9531 179.949 52.8594V54.0664C179.949 54.9492 180.016 55.7266 180.148 56.3984C180.281 57.0625 180.484 57.625 180.758 58.0859C181.039 58.5391 181.398 58.8828 181.836 59.1172C182.281 59.3438 182.816 59.457 183.441 59.457C184.176 59.457 184.781 59.3398 185.258 59.1055C185.734 58.8711 186.098 58.5234 186.348 58.0625C186.605 57.6016 186.758 57.0273 186.805 56.3398ZM195.699 44V62H192.324V44H195.699ZM195.219 55.2148H194.293C194.301 54.332 194.418 53.5195 194.645 52.7773C194.871 52.0273 195.195 51.3789 195.617 50.832C196.039 50.2773 196.543 49.8477 197.129 49.543C197.723 49.2383 198.379 49.0859 199.098 49.0859C199.723 49.0859 200.289 49.1758 200.797 49.3555C201.312 49.5273 201.754 49.8086 202.121 50.1992C202.496 50.582 202.785 51.0859 202.988 51.7109C203.191 52.3359 203.293 53.0938 203.293 53.9844V62H199.895V53.9609C199.895 53.3984 199.812 52.957 199.648 52.6367C199.492 52.3086 199.262 52.0781 198.957 51.9453C198.66 51.8047 198.293 51.7344 197.855 51.7344C197.371 51.7344 196.957 51.8242 196.613 52.0039C196.277 52.1836 196.008 52.4336 195.805 52.7539C195.602 53.0664 195.453 53.4336 195.359 53.8555C195.266 54.2773 195.219 54.7305 195.219 55.2148ZM211.695 62.2344C210.711 62.2344 209.828 62.0781 209.047 61.7656C208.266 61.4453 207.602 61.0039 207.055 60.4414C206.516 59.8789 206.102 59.2266 205.812 58.4844C205.523 57.7344 205.379 56.9375 205.379 56.0938V55.625C205.379 54.6641 205.516 53.7852 205.789 52.9883C206.062 52.1914 206.453 51.5 206.961 50.9141C207.477 50.3281 208.102 49.8789 208.836 49.5664C209.57 49.2461 210.398 49.0859 211.32 49.0859C212.219 49.0859 213.016 49.2344 213.711 49.5312C214.406 49.8281 214.988 50.25 215.457 50.7969C215.934 51.3438 216.293 52 216.535 52.7656C216.777 53.5234 216.898 54.3672 216.898 55.2969V56.7031H206.82V54.4531H213.582V54.1953C213.582 53.7266 213.496 53.3086 213.324 52.9414C213.16 52.5664 212.91 52.2695 212.574 52.0508C212.238 51.832 211.809 51.7227 211.285 51.7227C210.84 51.7227 210.457 51.8203 210.137 52.0156C209.816 52.2109 209.555 52.4844 209.352 52.8359C209.156 53.1875 209.008 53.6016 208.906 54.0781C208.812 54.5469 208.766 55.0625 208.766 55.625V56.0938C208.766 56.6016 208.836 57.0703 208.977 57.5C209.125 57.9297 209.332 58.3008 209.598 58.6133C209.871 58.9258 210.199 59.168 210.582 59.3398C210.973 59.5117 211.414 59.5977 211.906 59.5977C212.516 59.5977 213.082 59.4805 213.605 59.2461C214.137 59.0039 214.594 58.6406 214.977 58.1562L216.617 59.9375C216.352 60.3203 215.988 60.6875 215.527 61.0391C215.074 61.3906 214.527 61.6797 213.887 61.9062C213.246 62.125 212.516 62.2344 211.695 62.2344ZM223.121 62H219.723V48.1953C219.723 47.2344 219.91 46.4258 220.285 45.7695C220.668 45.1055 221.203 44.6055 221.891 44.2695C222.586 43.9258 223.41 43.7539 224.363 43.7539C224.676 43.7539 224.977 43.7773 225.266 43.8242C225.555 43.8633 225.836 43.9141 226.109 43.9766L226.074 46.5195C225.926 46.4805 225.77 46.4531 225.605 46.4375C225.441 46.4219 225.25 46.4141 225.031 46.4141C224.625 46.4141 224.277 46.4844 223.988 46.625C223.707 46.7578 223.492 46.957 223.344 47.2227C223.195 47.4883 223.121 47.8125 223.121 48.1953V62ZM225.652 49.3203V51.7109H217.836V49.3203H225.652Z" fill="#888888"/>
<path d="M102.635 86.0078V118H94.9443V86.0078H102.635ZM115.181 99.2573V118H107.776V94.2256H114.72L115.181 99.2573ZM114.28 105.3L112.588 105.344C112.588 103.674 112.786 102.136 113.182 100.729C113.577 99.3232 114.163 98.1001 114.939 97.0601C115.716 96.02 116.668 95.2144 117.796 94.6431C118.938 94.0718 120.257 93.7861 121.751 93.7861C122.791 93.7861 123.736 93.9473 124.585 94.2695C125.435 94.5771 126.167 95.0679 126.783 95.7417C127.398 96.4009 127.867 97.2651 128.189 98.3345C128.526 99.3892 128.694 100.656 128.694 102.136V118H121.29V103.081C121.29 102.07 121.172 101.308 120.938 100.795C120.718 100.283 120.396 99.9385 119.971 99.7627C119.546 99.5869 119.026 99.499 118.411 99.499C117.767 99.499 117.188 99.6455 116.675 99.9385C116.163 100.231 115.723 100.642 115.357 101.169C115.005 101.682 114.734 102.29 114.544 102.993C114.368 103.696 114.28 104.465 114.28 105.3ZM127.859 105.3L125.794 105.344C125.794 103.674 125.977 102.136 126.343 100.729C126.724 99.3232 127.288 98.1001 128.035 97.0601C128.797 96.02 129.742 95.2144 130.87 94.6431C131.998 94.0718 133.309 93.7861 134.803 93.7861C135.887 93.7861 136.883 93.9473 137.791 94.2695C138.699 94.5918 139.483 95.1118 140.142 95.8296C140.801 96.5474 141.314 97.4995 141.68 98.686C142.046 99.8579 142.229 101.308 142.229 103.037V118H134.803V103.037C134.803 102.055 134.686 101.315 134.451 100.817C134.231 100.305 133.909 99.9604 133.484 99.7847C133.06 99.5942 132.554 99.499 131.968 99.499C131.265 99.499 130.657 99.6455 130.145 99.9385C129.632 100.231 129.2 100.642 128.848 101.169C128.511 101.682 128.262 102.29 128.101 102.993C127.94 103.696 127.859 104.465 127.859 105.3ZM153.941 98.7959V127.141H146.536V94.2256H153.436L153.941 98.7959ZM168.531 105.827V106.289C168.531 108.017 168.333 109.621 167.938 111.101C167.542 112.58 166.956 113.869 166.18 114.968C165.403 116.066 164.437 116.923 163.279 117.539C162.137 118.139 160.811 118.439 159.302 118.439C157.881 118.439 156.658 118.125 155.633 117.495C154.607 116.865 153.75 115.993 153.062 114.88C152.374 113.767 151.817 112.492 151.392 111.057C150.967 109.621 150.63 108.105 150.381 106.508V105.915C150.63 104.201 150.967 102.612 151.392 101.147C151.817 99.6675 152.374 98.3784 153.062 97.2798C153.75 96.1812 154.6 95.3242 155.611 94.709C156.636 94.0938 157.859 93.7861 159.28 93.7861C160.789 93.7861 162.115 94.0718 163.257 94.6431C164.415 95.2144 165.381 96.0347 166.158 97.104C166.949 98.1587 167.542 99.4258 167.938 100.905C168.333 102.385 168.531 104.025 168.531 105.827ZM161.126 106.289V105.827C161.126 104.904 161.06 104.062 160.928 103.3C160.796 102.524 160.584 101.85 160.291 101.279C160.013 100.708 159.639 100.268 159.17 99.9604C158.702 99.6528 158.123 99.499 157.435 99.499C156.644 99.499 155.977 99.6235 155.435 99.8726C154.908 100.107 154.483 100.473 154.161 100.971C153.853 101.455 153.633 102.062 153.501 102.795C153.384 103.513 153.333 104.355 153.348 105.322V107.124C153.318 108.237 153.428 109.218 153.677 110.068C153.926 110.903 154.358 111.555 154.974 112.023C155.589 112.492 156.424 112.727 157.479 112.727C158.182 112.727 158.768 112.565 159.236 112.243C159.705 111.906 160.079 111.445 160.357 110.859C160.635 110.258 160.833 109.57 160.95 108.793C161.067 108.017 161.126 107.182 161.126 106.289ZM179.649 84.25V118H172.222V84.25H179.649ZM195.733 118.439C193.799 118.439 192.071 118.139 190.547 117.539C189.024 116.923 187.735 116.081 186.68 115.012C185.64 113.942 184.842 112.712 184.285 111.32C183.743 109.929 183.472 108.457 183.472 106.904V106.069C183.472 104.326 183.714 102.714 184.197 101.235C184.681 99.7407 185.398 98.437 186.351 97.3237C187.303 96.2104 188.497 95.3462 189.932 94.731C191.368 94.1011 193.038 93.7861 194.942 93.7861C196.626 93.7861 198.135 94.0571 199.468 94.5991C200.801 95.1411 201.929 95.9175 202.852 96.9282C203.79 97.939 204.5 99.1621 204.983 100.598C205.481 102.033 205.73 103.645 205.73 105.432V108.442H186.307V103.806H198.501V103.234C198.516 102.443 198.377 101.77 198.084 101.213C197.806 100.656 197.396 100.231 196.854 99.9385C196.312 99.6455 195.652 99.499 194.876 99.499C194.07 99.499 193.404 99.6748 192.876 100.026C192.364 100.378 191.961 100.861 191.668 101.477C191.39 102.077 191.192 102.773 191.075 103.564C190.958 104.355 190.899 105.19 190.899 106.069V106.904C190.899 107.783 191.016 108.581 191.25 109.299C191.5 110.017 191.851 110.632 192.305 111.145C192.774 111.643 193.331 112.031 193.975 112.309C194.634 112.587 195.381 112.727 196.216 112.727C197.227 112.727 198.223 112.536 199.205 112.155C200.186 111.774 201.028 111.145 201.731 110.266L205.093 114.265C204.61 114.953 203.921 115.62 203.028 116.264C202.149 116.909 201.094 117.436 199.864 117.846C198.633 118.242 197.256 118.439 195.733 118.439ZM216.211 99.2573V118H208.807V94.2256H215.75L216.211 99.2573ZM215.311 105.3L213.619 105.344C213.619 103.674 213.816 102.136 214.212 100.729C214.607 99.3232 215.193 98.1001 215.97 97.0601C216.746 96.02 217.698 95.2144 218.826 94.6431C219.969 94.0718 221.287 93.7861 222.781 93.7861C223.821 93.7861 224.766 93.9473 225.616 94.2695C226.465 94.5771 227.198 95.0679 227.813 95.7417C228.428 96.4009 228.897 97.2651 229.219 98.3345C229.556 99.3892 229.725 100.656 229.725 102.136V118H222.32V103.081C222.32 102.07 222.203 101.308 221.968 100.795C221.749 100.283 221.426 99.9385 221.001 99.7627C220.577 99.5869 220.057 99.499 219.441 99.499C218.797 99.499 218.218 99.6455 217.706 99.9385C217.193 100.231 216.753 100.642 216.387 101.169C216.036 101.682 215.765 102.29 215.574 102.993C215.398 103.696 215.311 104.465 215.311 105.3ZM228.89 105.3L226.824 105.344C226.824 103.674 227.007 102.136 227.374 100.729C227.754 99.3232 228.318 98.1001 229.065 97.0601C229.827 96.02 230.772 95.2144 231.9 94.6431C233.028 94.0718 234.339 93.7861 235.833 93.7861C236.917 93.7861 237.913 93.9473 238.821 94.2695C239.729 94.5918 240.513 95.1118 241.172 95.8296C241.832 96.5474 242.344 97.4995 242.71 98.686C243.077 99.8579 243.26 101.308 243.26 103.037V118H235.833V103.037C235.833 102.055 235.716 101.315 235.481 100.817C235.262 100.305 234.939 99.9604 234.515 99.7847C234.09 99.5942 233.584 99.499 232.999 99.499C232.295 99.499 231.688 99.6455 231.175 99.9385C230.662 100.231 230.23 100.642 229.878 101.169C229.542 101.682 229.292 102.29 229.131 102.993C228.97 103.696 228.89 104.465 228.89 105.3ZM259.014 118.439C257.081 118.439 255.352 118.139 253.829 117.539C252.305 116.923 251.016 116.081 249.961 115.012C248.921 113.942 248.123 112.712 247.566 111.32C247.024 109.929 246.753 108.457 246.753 106.904V106.069C246.753 104.326 246.995 102.714 247.479 101.235C247.962 99.7407 248.68 98.437 249.632 97.3237C250.584 96.2104 251.778 95.3462 253.213 94.731C254.649 94.1011 256.319 93.7861 258.223 93.7861C259.908 93.7861 261.417 94.0571 262.75 94.5991C264.083 95.1411 265.21 95.9175 266.133 96.9282C267.071 97.939 267.781 99.1621 268.265 100.598C268.763 102.033 269.012 103.645 269.012 105.432V108.442H249.588V103.806H261.783V103.234C261.797 102.443 261.658 101.77 261.365 101.213C261.087 100.656 260.677 100.231 260.135 99.9385C259.593 99.6455 258.934 99.499 258.157 99.499C257.352 99.499 256.685 99.6748 256.158 100.026C255.645 100.378 255.242 100.861 254.949 101.477C254.671 102.077 254.473 102.773 254.356 103.564C254.239 104.355 254.18 105.19 254.18 106.069V106.904C254.18 107.783 254.297 108.581 254.532 109.299C254.781 110.017 255.132 110.632 255.586 111.145C256.055 111.643 256.612 112.031 257.256 112.309C257.916 112.587 258.663 112.727 259.498 112.727C260.508 112.727 261.504 112.536 262.486 112.155C263.467 111.774 264.31 111.145 265.013 110.266L268.375 114.265C267.891 114.953 267.203 115.62 266.309 116.264C265.43 116.909 264.375 117.436 263.145 117.846C261.915 118.242 260.538 118.439 259.014 118.439ZM279.295 99.3013V118H271.89V94.2256H278.833L279.295 99.3013ZM278.416 105.3L276.68 105.344C276.68 103.527 276.9 101.909 277.339 100.488C277.779 99.0522 278.401 97.8364 279.207 96.8403C280.013 95.8442 280.972 95.0898 282.085 94.5771C283.213 94.0498 284.466 93.7861 285.843 93.7861C286.941 93.7861 287.945 93.9473 288.853 94.2695C289.776 94.5918 290.567 95.1118 291.226 95.8296C291.9 96.5474 292.413 97.4995 292.764 98.686C293.13 99.8579 293.313 101.308 293.313 103.037V118H285.865V103.015C285.865 102.062 285.733 101.337 285.469 100.839C285.206 100.327 284.825 99.9751 284.327 99.7847C283.829 99.5942 283.221 99.499 282.503 99.499C281.741 99.499 281.097 99.6455 280.569 99.9385C280.042 100.231 279.617 100.642 279.295 101.169C278.987 101.682 278.76 102.29 278.614 102.993C278.482 103.696 278.416 104.465 278.416 105.3ZM309.947 94.2256V99.3672H295.621V94.2256H309.947ZM298.631 88.3149H306.036V110.244C306.036 110.874 306.109 111.364 306.255 111.716C306.402 112.053 306.651 112.294 307.002 112.441C307.369 112.573 307.852 112.639 308.453 112.639C308.877 112.639 309.229 112.631 309.507 112.617C309.786 112.587 310.049 112.551 310.298 112.507V117.802C309.668 118.007 309.009 118.161 308.321 118.264C307.632 118.381 306.9 118.439 306.124 118.439C304.542 118.439 303.187 118.19 302.059 117.692C300.945 117.194 300.096 116.411 299.51 115.341C298.924 114.272 298.631 112.88 298.631 111.167V88.3149ZM325.24 112.023V102.224C325.24 101.55 325.145 100.971 324.954 100.488C324.764 100.004 324.463 99.6309 324.053 99.3672C323.643 99.0889 323.094 98.9497 322.405 98.9497C321.849 98.9497 321.373 99.0449 320.977 99.2354C320.582 99.4258 320.281 99.7114 320.076 100.092C319.871 100.473 319.769 100.957 319.769 101.542H312.364C312.364 100.444 312.605 99.4258 313.089 98.4883C313.587 97.5361 314.29 96.7085 315.198 96.0054C316.121 95.3022 317.22 94.7603 318.494 94.3794C319.783 93.9839 321.219 93.7861 322.801 93.7861C324.69 93.7861 326.375 94.1011 327.854 94.731C329.349 95.3608 330.528 96.3057 331.392 97.5654C332.256 98.8105 332.688 100.378 332.688 102.268V112.001C332.688 113.554 332.776 114.733 332.952 115.539C333.128 116.33 333.377 117.026 333.699 117.626V118H326.272C325.921 117.268 325.657 116.374 325.481 115.319C325.32 114.25 325.24 113.151 325.24 112.023ZM326.141 103.476L326.185 107.431H322.911C322.222 107.431 321.636 107.526 321.153 107.717C320.684 107.907 320.303 108.171 320.01 108.508C319.732 108.83 319.527 109.196 319.395 109.606C319.278 110.017 319.219 110.449 319.219 110.903C319.219 111.342 319.322 111.738 319.527 112.089C319.747 112.426 320.04 112.69 320.406 112.88C320.772 113.071 321.182 113.166 321.636 113.166C322.457 113.166 323.152 113.012 323.724 112.705C324.31 112.382 324.756 111.994 325.064 111.54C325.372 111.086 325.525 110.661 325.525 110.266L327.151 113.298C326.858 113.884 326.521 114.477 326.141 115.078C325.774 115.678 325.313 116.235 324.756 116.748C324.214 117.246 323.548 117.656 322.757 117.978C321.966 118.286 321.006 118.439 319.878 118.439C318.414 118.439 317.066 118.139 315.835 117.539C314.62 116.938 313.646 116.103 312.913 115.034C312.181 113.95 311.814 112.705 311.814 111.298C311.814 110.068 312.034 108.969 312.474 108.002C312.928 107.036 313.609 106.215 314.517 105.542C315.425 104.868 316.583 104.355 317.989 104.003C319.395 103.652 321.05 103.476 322.955 103.476H326.141ZM349.322 94.2256V99.3672H334.996V94.2256H349.322ZM338.006 88.3149H345.411V110.244C345.411 110.874 345.484 111.364 345.63 111.716C345.777 112.053 346.026 112.294 346.377 112.441C346.744 112.573 347.227 112.639 347.828 112.639C348.252 112.639 348.604 112.631 348.882 112.617C349.161 112.587 349.424 112.551 349.673 112.507V117.802C349.043 118.007 348.384 118.161 347.696 118.264C347.007 118.381 346.275 118.439 345.499 118.439C343.917 118.439 342.562 118.19 341.434 117.692C340.32 117.194 339.471 116.411 338.885 115.341C338.299 114.272 338.006 112.88 338.006 111.167V88.3149ZM360.088 94.2256V118H352.662V94.2256H360.088ZM352.222 88.0952C352.222 87.0405 352.603 86.1763 353.365 85.5024C354.126 84.8286 355.115 84.4917 356.331 84.4917C357.547 84.4917 358.536 84.8286 359.297 85.5024C360.059 86.1763 360.44 87.0405 360.44 88.0952C360.44 89.1499 360.059 90.0142 359.297 90.688C358.536 91.3618 357.547 91.6987 356.331 91.6987C355.115 91.6987 354.126 91.3618 353.365 90.688C352.603 90.0142 352.222 89.1499 352.222 88.0952ZM363.736 106.354V105.893C363.736 104.15 363.985 102.546 364.483 101.081C364.981 99.6016 365.713 98.3198 366.68 97.2358C367.647 96.1519 368.841 95.3096 370.262 94.709C371.683 94.0938 373.323 93.7861 375.184 93.7861C377.059 93.7861 378.707 94.0938 380.127 94.709C381.563 95.3096 382.764 96.1519 383.731 97.2358C384.698 98.3198 385.43 99.6016 385.928 101.081C386.426 102.546 386.675 104.15 386.675 105.893V106.354C386.675 108.083 386.426 109.687 385.928 111.167C385.43 112.631 384.698 113.913 383.731 115.012C382.764 116.096 381.57 116.938 380.149 117.539C378.729 118.139 377.088 118.439 375.228 118.439C373.367 118.439 371.719 118.139 370.284 117.539C368.848 116.938 367.647 116.096 366.68 115.012C365.713 113.913 364.981 112.631 364.483 111.167C363.985 109.687 363.736 108.083 363.736 106.354ZM371.141 105.893V106.354C371.141 107.248 371.207 108.083 371.338 108.859C371.47 109.636 371.69 110.317 371.998 110.903C372.305 111.474 372.723 111.921 373.25 112.243C373.777 112.565 374.437 112.727 375.228 112.727C376.004 112.727 376.648 112.565 377.161 112.243C377.688 111.921 378.106 111.474 378.414 110.903C378.721 110.317 378.941 109.636 379.073 108.859C379.205 108.083 379.271 107.248 379.271 106.354V105.893C379.271 105.029 379.205 104.216 379.073 103.454C378.941 102.678 378.721 101.997 378.414 101.411C378.106 100.81 377.688 100.341 377.161 100.004C376.634 99.6675 375.975 99.499 375.184 99.499C374.407 99.499 373.755 99.6675 373.228 100.004C372.715 100.341 372.305 100.81 371.998 101.411C371.69 101.997 371.47 102.678 371.338 103.454C371.207 104.216 371.141 105.029 371.141 105.893ZM397.244 99.3013V118H389.839V94.2256H396.783L397.244 99.3013ZM396.365 105.3L394.629 105.344C394.629 103.527 394.849 101.909 395.289 100.488C395.728 99.0522 396.351 97.8364 397.156 96.8403C397.962 95.8442 398.921 95.0898 400.035 94.5771C401.163 94.0498 402.415 93.7861 403.792 93.7861C404.891 93.7861 405.894 93.9473 406.802 94.2695C407.725 94.5918 408.516 95.1118 409.175 95.8296C409.849 96.5474 410.362 97.4995 410.713 98.686C411.08 99.8579 411.263 101.308 411.263 103.037V118H403.814V103.015C403.814 102.062 403.682 101.337 403.418 100.839C403.155 100.327 402.774 99.9751 402.276 99.7847C401.778 99.5942 401.17 99.499 400.452 99.499C399.69 99.499 399.046 99.6455 398.519 99.9385C397.991 100.231 397.566 100.642 397.244 101.169C396.937 101.682 396.709 102.29 396.563 102.993C396.431 103.696 396.365 104.465 396.365 105.3Z" fill="#14281D"/>
<path d="M1363 15C1363 6.71573 1356.28 0 1348 0H1134V167H1348C1356.28 167 1363 160.284 1363 152V15Z" fill="#5ACE7F"/>
<path d="M1281.5 49H1216.5L1214 51.5V116.5L1216.5 119H1281.5L1284 116.5V51.5L1281.5 49ZM1279 114H1234V104H1245.5C1247 107 1250.5 109 1254 109C1259.5 109 1264 104.5 1264 99C1264 93.5 1259.5 89 1254 89C1248.5 89 1244 93.5 1244 99H1229V114H1219V54H1229V65.5C1226 67 1224 70.5 1224 74C1224 79.5 1228.5 84 1234 84C1239.5 84 1244 79.5 1244 74H1254C1254 79.5 1258.5 84 1264 84C1269.5 84 1274 79.5 1274 74C1274 68.5 1269.5 64 1264 64C1260.5 64 1257 66 1255.5 69H1242.5C1241 66 1237.5 64 1234 64V54H1279V114ZM1249 99C1249 96 1251 94 1254 94C1257 94 1259 96 1259 99C1259 102 1257 104 1254 104C1251 104 1249 102 1249 99ZM1234 69C1237 69 1239 71 1239 74C1239 77 1237 79 1234 79C1231 79 1229 77 1229 74C1229 71 1231 69 1234 69ZM1264 69C1267 69 1269 71 1269 74C1269 77 1267 79 1264 79C1261 79 1259 77 1259 74C1259 71 1261 69 1264 69Z" fill="white"/>
</svg>
