<svg width="1363" height="167" viewBox="0 0 1363 167" fill="none" xmlns="http://www.w3.org/2000/svg">
<rect width="1363" height="167" rx="15" fill="#F0F0F0"/>
<path d="M0 15C0 6.71573 6.71573 0 15 0H37V167H15C6.71573 167 0 160.284 0 152V15Z" fill="#14281D"/>
<path d="M100.906 54.9219L93.3945 52.2383V49.0859L103.602 53.375V55.6367L100.906 54.9219ZM93.3945 57.1719L100.918 54.4297L103.602 53.7852V56.0352L93.3945 60.3242V57.1719ZM118.578 54.5117H114.195L114.172 52.0977H117.852C118.5 52.0977 119.031 52.0156 119.445 51.8516C119.859 51.6797 120.168 51.4336 120.371 51.1133C120.582 50.7852 120.688 50.3867 120.688 49.918C120.688 49.3867 120.586 48.957 120.383 48.6289C120.188 48.3008 119.879 48.0625 119.457 47.9141C119.043 47.7656 118.508 47.6914 117.852 47.6914H115.414V62H111.898V44.9375H117.852C118.844 44.9375 119.73 45.0312 120.512 45.2188C121.301 45.4062 121.969 45.6914 122.516 46.0742C123.062 46.457 123.48 46.9414 123.77 47.5273C124.059 48.1055 124.203 48.793 124.203 49.5898C124.203 50.293 124.043 50.9414 123.723 51.5352C123.41 52.1289 122.914 52.6133 122.234 52.9883C121.562 53.3633 120.684 53.5703 119.598 53.6094L118.578 54.5117ZM118.426 62H113.234L114.605 59.2578H118.426C119.043 59.2578 119.547 59.1602 119.938 58.9648C120.328 58.7617 120.617 58.4883 120.805 58.1445C120.992 57.8008 121.086 57.4062 121.086 56.9609C121.086 56.4609 121 56.0273 120.828 55.6602C120.664 55.293 120.398 55.0117 120.031 54.8164C119.664 54.6133 119.18 54.5117 118.578 54.5117H115.191L115.215 52.0977H119.434L120.242 53.0469C121.281 53.0312 122.117 53.2148 122.75 53.5977C123.391 53.9727 123.855 54.4609 124.145 55.0625C124.441 55.6641 124.59 56.3086 124.59 56.9961C124.59 58.0898 124.352 59.0117 123.875 59.7617C123.398 60.5039 122.699 61.0625 121.777 61.4375C120.863 61.8125 119.746 62 118.426 62ZM134.516 58.9648V49.3203H137.891V62H134.715L134.516 58.9648ZM134.891 56.3633L135.887 56.3398C135.887 57.1836 135.789 57.9688 135.594 58.6953C135.398 59.4141 135.105 60.0391 134.715 60.5703C134.324 61.0938 133.832 61.5039 133.238 61.8008C132.645 62.0898 131.945 62.2344 131.141 62.2344C130.523 62.2344 129.953 62.1484 129.43 61.9766C128.914 61.7969 128.469 61.5195 128.094 61.1445C127.727 60.7617 127.438 60.2734 127.227 59.6797C127.023 59.0781 126.922 58.3555 126.922 57.5117V49.3203H130.297V57.5352C130.297 57.9102 130.34 58.2266 130.426 58.4844C130.52 58.7422 130.648 58.9531 130.812 59.1172C130.977 59.2812 131.168 59.3984 131.387 59.4688C131.613 59.5391 131.863 59.5742 132.137 59.5742C132.832 59.5742 133.379 59.4336 133.777 59.1523C134.184 58.8711 134.469 58.4883 134.633 58.0039C134.805 57.5117 134.891 56.9648 134.891 56.3633ZM146.68 49.3203V51.7109H139.297V49.3203H146.68ZM141.125 46.1914H144.5V58.1797C144.5 58.5469 144.547 58.8281 144.641 59.0234C144.742 59.2188 144.891 59.3555 145.086 59.4336C145.281 59.5039 145.527 59.5391 145.824 59.5391C146.035 59.5391 146.223 59.5312 146.387 59.5156C146.559 59.4922 146.703 59.4688 146.82 59.4453L146.832 61.9297C146.543 62.0234 146.23 62.0977 145.895 62.1523C145.559 62.207 145.188 62.2344 144.781 62.2344C144.039 62.2344 143.391 62.1133 142.836 61.8711C142.289 61.6211 141.867 61.2227 141.57 60.6758C141.273 60.1289 141.125 59.4102 141.125 58.5195V46.1914ZM152.164 44V62H148.777V44H152.164ZM160.789 62.2344C159.805 62.2344 158.922 62.0781 158.141 61.7656C157.359 61.4453 156.695 61.0039 156.148 60.4414C155.609 59.8789 155.195 59.2266 154.906 58.4844C154.617 57.7344 154.473 56.9375 154.473 56.0938V55.625C154.473 54.6641 154.609 53.7852 154.883 52.9883C155.156 52.1914 155.547 51.5 156.055 50.9141C156.57 50.3281 157.195 49.8789 157.93 49.5664C158.664 49.2461 159.492 49.0859 160.414 49.0859C161.312 49.0859 162.109 49.2344 162.805 49.5312C163.5 49.8281 164.082 50.25 164.551 50.7969C165.027 51.3438 165.387 52 165.629 52.7656C165.871 53.5234 165.992 54.3672 165.992 55.2969V56.7031H155.914V54.4531H162.676V54.1953C162.676 53.7266 162.59 53.3086 162.418 52.9414C162.254 52.5664 162.004 52.2695 161.668 52.0508C161.332 51.832 160.902 51.7227 160.379 51.7227C159.934 51.7227 159.551 51.8203 159.23 52.0156C158.91 52.2109 158.648 52.4844 158.445 52.8359C158.25 53.1875 158.102 53.6016 158 54.0781C157.906 54.5469 157.859 55.0625 157.859 55.625V56.0938C157.859 56.6016 157.93 57.0703 158.07 57.5C158.219 57.9297 158.426 58.3008 158.691 58.6133C158.965 58.9258 159.293 59.168 159.676 59.3398C160.066 59.5117 160.508 59.5977 161 59.5977C161.609 59.5977 162.176 59.4805 162.699 59.2461C163.23 59.0039 163.688 58.6406 164.07 58.1562L165.711 59.9375C165.445 60.3203 165.082 60.6875 164.621 61.0391C164.168 61.3906 163.621 61.6797 162.98 61.9062C162.34 62.125 161.609 62.2344 160.789 62.2344ZM171.289 52.0859V62H167.914V49.3203H171.09L171.289 52.0859ZM175.109 49.2383L175.051 52.3672C174.887 52.3438 174.688 52.3242 174.453 52.3086C174.227 52.2852 174.02 52.2734 173.832 52.2734C173.355 52.2734 172.941 52.3359 172.59 52.4609C172.246 52.5781 171.957 52.7539 171.723 52.9883C171.496 53.2227 171.324 53.5078 171.207 53.8438C171.098 54.1797 171.035 54.5625 171.02 54.9922L170.34 54.7812C170.34 53.9609 170.422 53.207 170.586 52.5195C170.75 51.8242 170.988 51.2188 171.301 50.7031C171.621 50.1875 172.012 49.7891 172.473 49.5078C172.934 49.2266 173.461 49.0859 174.055 49.0859C174.242 49.0859 174.434 49.1016 174.629 49.1328C174.824 49.1562 174.984 49.1914 175.109 49.2383ZM186.805 56.3398H190.309C190.238 57.4883 189.922 58.5078 189.359 59.3984C188.805 60.2891 188.027 60.9844 187.027 61.4844C186.035 61.9844 184.84 62.2344 183.441 62.2344C182.348 62.2344 181.367 62.0469 180.5 61.6719C179.633 61.2891 178.891 60.7422 178.273 60.0312C177.664 59.3203 177.199 58.4609 176.879 57.4531C176.559 56.4453 176.398 55.3164 176.398 54.0664V52.8828C176.398 51.6328 176.562 50.5039 176.891 49.4961C177.227 48.4805 177.703 47.6172 178.32 46.9062C178.945 46.1953 179.691 45.6484 180.559 45.2656C181.426 44.8828 182.395 44.6914 183.465 44.6914C184.887 44.6914 186.086 44.9492 187.062 45.4648C188.047 45.9805 188.809 46.6914 189.348 47.5977C189.895 48.5039 190.223 49.5352 190.332 50.6914H186.816C186.777 50.0039 186.641 49.4219 186.406 48.9453C186.172 48.4609 185.816 48.0977 185.34 47.8555C184.871 47.6055 184.246 47.4805 183.465 47.4805C182.879 47.4805 182.367 47.5898 181.93 47.8086C181.492 48.0273 181.125 48.3594 180.828 48.8047C180.531 49.25 180.309 49.8125 180.16 50.4922C180.02 51.1641 179.949 51.9531 179.949 52.8594V54.0664C179.949 54.9492 180.016 55.7266 180.148 56.3984C180.281 57.0625 180.484 57.625 180.758 58.0859C181.039 58.5391 181.398 58.8828 181.836 59.1172C182.281 59.3438 182.816 59.457 183.441 59.457C184.176 59.457 184.781 59.3398 185.258 59.1055C185.734 58.8711 186.098 58.5234 186.348 58.0625C186.605 57.6016 186.758 57.0273 186.805 56.3398ZM195.699 44V62H192.324V44H195.699ZM195.219 55.2148H194.293C194.301 54.332 194.418 53.5195 194.645 52.7773C194.871 52.0273 195.195 51.3789 195.617 50.832C196.039 50.2773 196.543 49.8477 197.129 49.543C197.723 49.2383 198.379 49.0859 199.098 49.0859C199.723 49.0859 200.289 49.1758 200.797 49.3555C201.312 49.5273 201.754 49.8086 202.121 50.1992C202.496 50.582 202.785 51.0859 202.988 51.7109C203.191 52.3359 203.293 53.0938 203.293 53.9844V62H199.895V53.9609C199.895 53.3984 199.812 52.957 199.648 52.6367C199.492 52.3086 199.262 52.0781 198.957 51.9453C198.66 51.8047 198.293 51.7344 197.855 51.7344C197.371 51.7344 196.957 51.8242 196.613 52.0039C196.277 52.1836 196.008 52.4336 195.805 52.7539C195.602 53.0664 195.453 53.4336 195.359 53.8555C195.266 54.2773 195.219 54.7305 195.219 55.2148ZM211.695 62.2344C210.711 62.2344 209.828 62.0781 209.047 61.7656C208.266 61.4453 207.602 61.0039 207.055 60.4414C206.516 59.8789 206.102 59.2266 205.812 58.4844C205.523 57.7344 205.379 56.9375 205.379 56.0938V55.625C205.379 54.6641 205.516 53.7852 205.789 52.9883C206.062 52.1914 206.453 51.5 206.961 50.9141C207.477 50.3281 208.102 49.8789 208.836 49.5664C209.57 49.2461 210.398 49.0859 211.32 49.0859C212.219 49.0859 213.016 49.2344 213.711 49.5312C214.406 49.8281 214.988 50.25 215.457 50.7969C215.934 51.3438 216.293 52 216.535 52.7656C216.777 53.5234 216.898 54.3672 216.898 55.2969V56.7031H206.82V54.4531H213.582V54.1953C213.582 53.7266 213.496 53.3086 213.324 52.9414C213.16 52.5664 212.91 52.2695 212.574 52.0508C212.238 51.832 211.809 51.7227 211.285 51.7227C210.84 51.7227 210.457 51.8203 210.137 52.0156C209.816 52.2109 209.555 52.4844 209.352 52.8359C209.156 53.1875 209.008 53.6016 208.906 54.0781C208.812 54.5469 208.766 55.0625 208.766 55.625V56.0938C208.766 56.6016 208.836 57.0703 208.977 57.5C209.125 57.9297 209.332 58.3008 209.598 58.6133C209.871 58.9258 210.199 59.168 210.582 59.3398C210.973 59.5117 211.414 59.5977 211.906 59.5977C212.516 59.5977 213.082 59.4805 213.605 59.2461C214.137 59.0039 214.594 58.6406 214.977 58.1562L216.617 59.9375C216.352 60.3203 215.988 60.6875 215.527 61.0391C215.074 61.3906 214.527 61.6797 213.887 61.9062C213.246 62.125 212.516 62.2344 211.695 62.2344ZM223.121 62H219.723V48.1953C219.723 47.2344 219.91 46.4258 220.285 45.7695C220.668 45.1055 221.203 44.6055 221.891 44.2695C222.586 43.9258 223.41 43.7539 224.363 43.7539C224.676 43.7539 224.977 43.7773 225.266 43.8242C225.555 43.8633 225.836 43.9141 226.109 43.9766L226.074 46.5195C225.926 46.4805 225.77 46.4531 225.605 46.4375C225.441 46.4219 225.25 46.4141 225.031 46.4141C224.625 46.4141 224.277 46.4844 223.988 46.625C223.707 46.7578 223.492 46.957 223.344 47.2227C223.195 47.4883 223.121 47.8125 223.121 48.1953V62ZM225.652 49.3203V51.7109H217.836V49.3203H225.652Z" fill="#888888"/>
<path d="M109.93 86.0078V118H102.217V86.0078H109.93ZM119.554 86.0078V91.9624H92.813V86.0078H119.554ZM132.012 118.439C130.079 118.439 128.35 118.139 126.827 117.539C125.303 116.923 124.014 116.081 122.959 115.012C121.919 113.942 121.121 112.712 120.564 111.32C120.022 109.929 119.751 108.457 119.751 106.904V106.069C119.751 104.326 119.993 102.714 120.477 101.235C120.96 99.7407 121.678 98.437 122.63 97.3237C123.582 96.2104 124.776 95.3462 126.211 94.731C127.647 94.1011 129.317 93.7861 131.221 93.7861C132.906 93.7861 134.415 94.0571 135.748 94.5991C137.081 95.1411 138.208 95.9175 139.131 96.9282C140.069 97.939 140.779 99.1621 141.263 100.598C141.761 102.033 142.01 103.645 142.01 105.432V108.442H122.586V103.806H134.781V103.234C134.795 102.443 134.656 101.77 134.363 101.213C134.085 100.656 133.675 100.231 133.133 99.9385C132.591 99.6455 131.932 99.499 131.155 99.499C130.35 99.499 129.683 99.6748 129.156 100.026C128.643 100.378 128.24 100.861 127.947 101.477C127.669 102.077 127.471 102.773 127.354 103.564C127.237 104.355 127.178 105.19 127.178 106.069V106.904C127.178 107.783 127.295 108.581 127.53 109.299C127.779 110.017 128.13 110.632 128.584 111.145C129.053 111.643 129.61 112.031 130.254 112.309C130.914 112.587 131.661 112.727 132.496 112.727C133.506 112.727 134.502 112.536 135.484 112.155C136.465 111.774 137.308 111.145 138.011 110.266L141.373 114.265C140.889 114.953 140.201 115.62 139.307 116.264C138.428 116.909 137.374 117.436 136.143 117.846C134.913 118.242 133.536 118.439 132.012 118.439ZM155.062 112.727C155.75 112.727 156.336 112.602 156.819 112.353C157.317 112.089 157.691 111.723 157.94 111.254C158.204 110.771 158.328 110.192 158.313 109.519H165.279C165.293 111.306 164.854 112.873 163.96 114.221C163.082 115.554 161.88 116.594 160.357 117.341C158.848 118.073 157.142 118.439 155.237 118.439C153.377 118.439 151.751 118.139 150.359 117.539C148.968 116.923 147.803 116.074 146.866 114.99C145.943 113.891 145.247 112.609 144.778 111.145C144.324 109.68 144.097 108.09 144.097 106.376V105.871C144.097 104.157 144.324 102.568 144.778 101.103C145.247 99.6235 145.943 98.3418 146.866 97.2578C147.803 96.1592 148.96 95.3096 150.337 94.709C151.729 94.0938 153.348 93.7861 155.193 93.7861C157.171 93.7861 158.914 94.1597 160.423 94.9067C161.946 95.6538 163.14 96.7378 164.004 98.1587C164.869 99.5796 165.293 101.301 165.279 103.322H158.313C158.328 102.604 158.218 101.96 157.984 101.389C157.75 100.817 157.383 100.363 156.885 100.026C156.402 99.6748 155.779 99.499 155.018 99.499C154.256 99.499 153.641 99.6675 153.172 100.004C152.703 100.341 152.344 100.81 152.095 101.411C151.861 101.997 151.7 102.67 151.612 103.432C151.539 104.194 151.502 105.007 151.502 105.871V106.376C151.502 107.255 151.539 108.083 151.612 108.859C151.7 109.621 151.868 110.295 152.117 110.881C152.366 111.452 152.725 111.906 153.194 112.243C153.663 112.565 154.285 112.727 155.062 112.727ZM175.694 84.25V118H168.289V84.25H175.694ZM174.815 105.3L173.079 105.344C173.079 103.674 173.284 102.136 173.694 100.729C174.104 99.3232 174.69 98.1001 175.452 97.0601C176.214 96.02 177.129 95.2144 178.199 94.6431C179.268 94.0718 180.455 93.7861 181.758 93.7861C182.93 93.7861 184 93.9546 184.966 94.2915C185.948 94.6284 186.79 95.1704 187.493 95.9175C188.211 96.6646 188.76 97.6387 189.141 98.8398C189.537 100.041 189.734 101.506 189.734 103.234V118H182.286V103.19C182.286 102.224 182.146 101.477 181.868 100.949C181.604 100.407 181.224 100.034 180.726 99.8286C180.228 99.6089 179.62 99.499 178.902 99.499C178.038 99.499 177.334 99.6455 176.792 99.9385C176.25 100.231 175.833 100.642 175.54 101.169C175.262 101.682 175.071 102.29 174.969 102.993C174.866 103.696 174.815 104.465 174.815 105.3ZM221.88 109.497C221.88 108.999 221.807 108.552 221.661 108.156C221.514 107.746 221.243 107.365 220.848 107.014C220.452 106.662 219.881 106.311 219.134 105.959C218.401 105.593 217.435 105.212 216.233 104.816C214.827 104.348 213.472 103.82 212.168 103.234C210.865 102.634 209.7 101.938 208.675 101.147C207.649 100.341 206.836 99.4038 206.236 98.3345C205.635 97.2505 205.335 95.9907 205.335 94.5552C205.335 93.1782 205.643 91.9404 206.258 90.8418C206.873 89.7285 207.73 88.7837 208.829 88.0073C209.942 87.2163 211.246 86.6157 212.74 86.2056C214.234 85.7808 215.867 85.5684 217.64 85.5684C219.983 85.5684 222.049 85.9785 223.836 86.7988C225.638 87.6045 227.044 88.7544 228.055 90.2485C229.08 91.728 229.593 93.4785 229.593 95.5H221.924C221.924 94.6943 221.756 93.9839 221.419 93.3687C221.097 92.7534 220.606 92.27 219.947 91.9185C219.288 91.5669 218.46 91.3911 217.464 91.3911C216.497 91.3911 215.684 91.5376 215.025 91.8306C214.366 92.1235 213.868 92.519 213.531 93.0171C213.194 93.5005 213.025 94.0352 213.025 94.6211C213.025 95.1045 213.157 95.5439 213.421 95.9395C213.699 96.3203 214.087 96.6792 214.585 97.0161C215.098 97.353 215.713 97.6753 216.431 97.9829C217.164 98.2905 217.984 98.5908 218.892 98.8838C220.591 99.4258 222.1 100.034 223.418 100.708C224.751 101.367 225.872 102.121 226.78 102.971C227.703 103.806 228.399 104.758 228.868 105.827C229.351 106.896 229.593 108.105 229.593 109.453C229.593 110.888 229.314 112.163 228.758 113.276C228.201 114.389 227.403 115.334 226.363 116.11C225.323 116.872 224.078 117.451 222.627 117.846C221.177 118.242 219.559 118.439 217.771 118.439C216.131 118.439 214.512 118.234 212.916 117.824C211.333 117.399 209.898 116.755 208.609 115.891C207.32 115.012 206.287 113.891 205.511 112.529C204.749 111.152 204.368 109.519 204.368 107.629H212.103C212.103 108.566 212.227 109.357 212.476 110.002C212.725 110.646 213.091 111.167 213.575 111.562C214.058 111.943 214.651 112.221 215.354 112.397C216.058 112.558 216.863 112.639 217.771 112.639C218.753 112.639 219.544 112.5 220.145 112.221C220.745 111.928 221.185 111.547 221.463 111.079C221.741 110.595 221.88 110.068 221.88 109.497ZM245.743 94.2256V99.3672H231.417V94.2256H245.743ZM234.427 88.3149H241.832V110.244C241.832 110.874 241.905 111.364 242.051 111.716C242.198 112.053 242.447 112.294 242.798 112.441C243.165 112.573 243.648 112.639 244.249 112.639C244.673 112.639 245.025 112.631 245.303 112.617C245.582 112.587 245.845 112.551 246.094 112.507V117.802C245.464 118.007 244.805 118.161 244.117 118.264C243.428 118.381 242.696 118.439 241.919 118.439C240.337 118.439 238.982 118.19 237.854 117.692C236.741 117.194 235.892 116.411 235.306 115.341C234.72 114.272 234.427 112.88 234.427 111.167V88.3149ZM261.036 112.023V102.224C261.036 101.55 260.94 100.971 260.75 100.488C260.56 100.004 260.259 99.6309 259.849 99.3672C259.439 99.0889 258.89 98.9497 258.201 98.9497C257.645 98.9497 257.168 99.0449 256.773 99.2354C256.377 99.4258 256.077 99.7114 255.872 100.092C255.667 100.473 255.564 100.957 255.564 101.542H248.16C248.16 100.444 248.401 99.4258 248.885 98.4883C249.383 97.5361 250.086 96.7085 250.994 96.0054C251.917 95.3022 253.016 94.7603 254.29 94.3794C255.579 93.9839 257.015 93.7861 258.597 93.7861C260.486 93.7861 262.171 94.1011 263.65 94.731C265.145 95.3608 266.324 96.3057 267.188 97.5654C268.052 98.8105 268.484 100.378 268.484 102.268V112.001C268.484 113.554 268.572 114.733 268.748 115.539C268.924 116.33 269.173 117.026 269.495 117.626V118H262.068C261.717 117.268 261.453 116.374 261.277 115.319C261.116 114.25 261.036 113.151 261.036 112.023ZM261.937 103.476L261.98 107.431H258.707C258.018 107.431 257.432 107.526 256.949 107.717C256.48 107.907 256.099 108.171 255.806 108.508C255.528 108.83 255.323 109.196 255.191 109.606C255.074 110.017 255.015 110.449 255.015 110.903C255.015 111.342 255.118 111.738 255.323 112.089C255.542 112.426 255.835 112.69 256.202 112.88C256.568 113.071 256.978 113.166 257.432 113.166C258.252 113.166 258.948 113.012 259.52 112.705C260.105 112.382 260.552 111.994 260.86 111.54C261.167 111.086 261.321 110.661 261.321 110.266L262.947 113.298C262.654 113.884 262.317 114.477 261.937 115.078C261.57 115.678 261.109 116.235 260.552 116.748C260.01 117.246 259.344 117.656 258.553 117.978C257.762 118.286 256.802 118.439 255.674 118.439C254.209 118.439 252.862 118.139 251.631 117.539C250.416 116.938 249.441 116.103 248.709 115.034C247.977 113.95 247.61 112.705 247.61 111.298C247.61 110.068 247.83 108.969 248.27 108.002C248.724 107.036 249.405 106.215 250.313 105.542C251.221 104.868 252.378 104.355 253.785 104.003C255.191 103.652 256.846 103.476 258.75 103.476H261.937ZM282.635 112.727C283.323 112.727 283.909 112.602 284.393 112.353C284.891 112.089 285.264 111.723 285.513 111.254C285.777 110.771 285.901 110.192 285.887 109.519H292.852C292.867 111.306 292.427 112.873 291.534 114.221C290.655 115.554 289.454 116.594 287.93 117.341C286.421 118.073 284.715 118.439 282.811 118.439C280.95 118.439 279.324 118.139 277.933 117.539C276.541 116.923 275.376 116.074 274.439 114.99C273.516 113.891 272.82 112.609 272.352 111.145C271.897 109.68 271.67 108.09 271.67 106.376V105.871C271.67 104.157 271.897 102.568 272.352 101.103C272.82 99.6235 273.516 98.3418 274.439 97.2578C275.376 96.1592 276.534 95.3096 277.911 94.709C279.302 94.0938 280.921 93.7861 282.767 93.7861C284.744 93.7861 286.487 94.1597 287.996 94.9067C289.52 95.6538 290.713 96.7378 291.578 98.1587C292.442 99.5796 292.867 101.301 292.852 103.322H285.887C285.901 102.604 285.792 101.96 285.557 101.389C285.323 100.817 284.957 100.363 284.458 100.026C283.975 99.6748 283.353 99.499 282.591 99.499C281.829 99.499 281.214 99.6675 280.745 100.004C280.276 100.341 279.917 100.81 279.668 101.411C279.434 101.997 279.273 102.67 279.185 103.432C279.112 104.194 279.075 105.007 279.075 105.871V106.376C279.075 107.255 279.112 108.083 279.185 108.859C279.273 109.621 279.441 110.295 279.69 110.881C279.939 111.452 280.298 111.906 280.767 112.243C281.236 112.565 281.858 112.727 282.635 112.727ZM303.487 84.228V118H296.082V84.228H303.487ZM318.692 94.2256L308.365 106.333L302.959 111.738L299.729 107.036L304.234 101.169L309.815 94.2256H318.692ZM310.76 118L304.41 107.167L309.881 103.278L319.241 118H310.76Z" fill="#14281D"/>
<path d="M1363 15C1363 6.71573 1356.28 0 1348 0H1134V167H1348C1356.28 167 1363 160.284 1363 152V15Z" fill="#5ACE7F"/>
<path fill-rule="evenodd" clip-rule="evenodd" d="M1218.5 55C1218.37 55 1218.24 55.0527 1218.15 55.1464C1218.05 55.2402 1218 55.3674 1218 55.5V111.5C1218 111.633 1218.05 111.76 1218.15 111.854C1218.24 111.947 1218.37 112 1218.5 112H1278C1278.13 112 1278.26 111.947 1278.35 111.854C1278.45 111.76 1278.5 111.633 1278.5 111.5V66C1278.5 65.8674 1278.45 65.7402 1278.35 65.6464C1278.26 65.5527 1278.13 65.5 1278 65.5H1248.25C1247.36 65.5 1246.52 65.1045 1245.95 64.4206L1238.09 55H1218.5ZM1213.9 50.9038C1215.12 49.6848 1216.78 49 1218.5 49H1239.5C1240.39 49 1241.23 49.3955 1241.8 50.0794L1249.66 59.5H1278C1279.72 59.5 1281.38 60.1848 1282.6 61.4038C1283.82 62.6228 1284.5 64.2761 1284.5 66V111.5C1284.5 113.224 1283.82 114.877 1282.6 116.096C1281.38 117.315 1279.72 118 1278 118H1218.5C1216.78 118 1215.12 117.315 1213.9 116.096C1212.68 114.877 1212 113.224 1212 111.5V55.5C1212 53.7761 1212.68 52.1228 1213.9 50.9038Z" fill="white"/>
<path fill-rule="evenodd" clip-rule="evenodd" d="M1243.72 77.5251C1245.09 78.892 1245.09 81.108 1243.72 82.4749L1237.45 88.75L1243.72 95.0251C1245.09 96.392 1245.09 98.608 1243.72 99.9749C1242.36 101.342 1240.14 101.342 1238.78 99.9749L1230.03 91.2249C1228.66 89.858 1228.66 87.642 1230.03 86.2751L1238.78 77.5251C1240.14 76.1583 1242.36 76.1583 1243.72 77.5251Z" fill="white"/>
<path fill-rule="evenodd" clip-rule="evenodd" d="M1252.03 99.9749C1250.66 98.608 1250.66 96.392 1252.03 95.0251L1258.3 88.75L1252.03 82.4749C1250.66 81.108 1250.66 78.892 1252.03 77.5251C1253.39 76.1583 1255.61 76.1583 1256.97 77.5251L1265.72 86.2751C1267.09 87.642 1267.09 89.858 1265.72 91.2249L1256.97 99.9749C1255.61 101.342 1253.39 101.342 1252.03 99.9749Z" fill="white"/>
</svg>
