<svg width="1363" height="167" viewBox="0 0 1363 167" fill="none" xmlns="http://www.w3.org/2000/svg">
<rect width="1363" height="167" rx="15" fill="#F0F0F0"/>
<path d="M0 15C0 6.71573 6.71573 0 15 0H37V167H15C6.71573 167 0 160.284 0 152V15Z" fill="#424241"/>
<path d="M100.906 54.9219L93.3945 52.2383V49.0859L103.602 53.375V55.6367L100.906 54.9219ZM93.3945 57.1719L100.918 54.4297L103.602 53.7852V56.0352L93.3945 60.3242V57.1719ZM118.578 54.5117H114.195L114.172 52.0977H117.852C118.5 52.0977 119.031 52.0156 119.445 51.8516C119.859 51.6797 120.168 51.4336 120.371 51.1133C120.582 50.7852 120.688 50.3867 120.688 49.918C120.688 49.3867 120.586 48.957 120.383 48.6289C120.188 48.3008 119.879 48.0625 119.457 47.9141C119.043 47.7656 118.508 47.6914 117.852 47.6914H115.414V62H111.898V44.9375H117.852C118.844 44.9375 119.73 45.0312 120.512 45.2188C121.301 45.4062 121.969 45.6914 122.516 46.0742C123.062 46.457 123.48 46.9414 123.77 47.5273C124.059 48.1055 124.203 48.793 124.203 49.5898C124.203 50.293 124.043 50.9414 123.723 51.5352C123.41 52.1289 122.914 52.6133 122.234 52.9883C121.562 53.3633 120.684 53.5703 119.598 53.6094L118.578 54.5117ZM118.426 62H113.234L114.605 59.2578H118.426C119.043 59.2578 119.547 59.1602 119.938 58.9648C120.328 58.7617 120.617 58.4883 120.805 58.1445C120.992 57.8008 121.086 57.4062 121.086 56.9609C121.086 56.4609 121 56.0273 120.828 55.6602C120.664 55.293 120.398 55.0117 120.031 54.8164C119.664 54.6133 119.18 54.5117 118.578 54.5117H115.191L115.215 52.0977H119.434L120.242 53.0469C121.281 53.0312 122.117 53.2148 122.75 53.5977C123.391 53.9727 123.855 54.4609 124.145 55.0625C124.441 55.6641 124.59 56.3086 124.59 56.9961C124.59 58.0898 124.352 59.0117 123.875 59.7617C123.398 60.5039 122.699 61.0625 121.777 61.4375C120.863 61.8125 119.746 62 118.426 62ZM134.516 58.9648V49.3203H137.891V62H134.715L134.516 58.9648ZM134.891 56.3633L135.887 56.3398C135.887 57.1836 135.789 57.9688 135.594 58.6953C135.398 59.4141 135.105 60.0391 134.715 60.5703C134.324 61.0938 133.832 61.5039 133.238 61.8008C132.645 62.0898 131.945 62.2344 131.141 62.2344C130.523 62.2344 129.953 62.1484 129.43 61.9766C128.914 61.7969 128.469 61.5195 128.094 61.1445C127.727 60.7617 127.438 60.2734 127.227 59.6797C127.023 59.0781 126.922 58.3555 126.922 57.5117V49.3203H130.297V57.5352C130.297 57.9102 130.34 58.2266 130.426 58.4844C130.52 58.7422 130.648 58.9531 130.812 59.1172C130.977 59.2812 131.168 59.3984 131.387 59.4688C131.613 59.5391 131.863 59.5742 132.137 59.5742C132.832 59.5742 133.379 59.4336 133.777 59.1523C134.184 58.8711 134.469 58.4883 134.633 58.0039C134.805 57.5117 134.891 56.9648 134.891 56.3633ZM146.68 49.3203V51.7109H139.297V49.3203H146.68ZM141.125 46.1914H144.5V58.1797C144.5 58.5469 144.547 58.8281 144.641 59.0234C144.742 59.2188 144.891 59.3555 145.086 59.4336C145.281 59.5039 145.527 59.5391 145.824 59.5391C146.035 59.5391 146.223 59.5312 146.387 59.5156C146.559 59.4922 146.703 59.4688 146.82 59.4453L146.832 61.9297C146.543 62.0234 146.23 62.0977 145.895 62.1523C145.559 62.207 145.188 62.2344 144.781 62.2344C144.039 62.2344 143.391 62.1133 142.836 61.8711C142.289 61.6211 141.867 61.2227 141.57 60.6758C141.273 60.1289 141.125 59.4102 141.125 58.5195V46.1914ZM152.164 44V62H148.777V44H152.164ZM160.789 62.2344C159.805 62.2344 158.922 62.0781 158.141 61.7656C157.359 61.4453 156.695 61.0039 156.148 60.4414C155.609 59.8789 155.195 59.2266 154.906 58.4844C154.617 57.7344 154.473 56.9375 154.473 56.0938V55.625C154.473 54.6641 154.609 53.7852 154.883 52.9883C155.156 52.1914 155.547 51.5 156.055 50.9141C156.57 50.3281 157.195 49.8789 157.93 49.5664C158.664 49.2461 159.492 49.0859 160.414 49.0859C161.312 49.0859 162.109 49.2344 162.805 49.5312C163.5 49.8281 164.082 50.25 164.551 50.7969C165.027 51.3438 165.387 52 165.629 52.7656C165.871 53.5234 165.992 54.3672 165.992 55.2969V56.7031H155.914V54.4531H162.676V54.1953C162.676 53.7266 162.59 53.3086 162.418 52.9414C162.254 52.5664 162.004 52.2695 161.668 52.0508C161.332 51.832 160.902 51.7227 160.379 51.7227C159.934 51.7227 159.551 51.8203 159.23 52.0156C158.91 52.2109 158.648 52.4844 158.445 52.8359C158.25 53.1875 158.102 53.6016 158 54.0781C157.906 54.5469 157.859 55.0625 157.859 55.625V56.0938C157.859 56.6016 157.93 57.0703 158.07 57.5C158.219 57.9297 158.426 58.3008 158.691 58.6133C158.965 58.9258 159.293 59.168 159.676 59.3398C160.066 59.5117 160.508 59.5977 161 59.5977C161.609 59.5977 162.176 59.4805 162.699 59.2461C163.23 59.0039 163.688 58.6406 164.07 58.1562L165.711 59.9375C165.445 60.3203 165.082 60.6875 164.621 61.0391C164.168 61.3906 163.621 61.6797 162.98 61.9062C162.34 62.125 161.609 62.2344 160.789 62.2344ZM171.289 52.0859V62H167.914V49.3203H171.09L171.289 52.0859ZM175.109 49.2383L175.051 52.3672C174.887 52.3438 174.688 52.3242 174.453 52.3086C174.227 52.2852 174.02 52.2734 173.832 52.2734C173.355 52.2734 172.941 52.3359 172.59 52.4609C172.246 52.5781 171.957 52.7539 171.723 52.9883C171.496 53.2227 171.324 53.5078 171.207 53.8438C171.098 54.1797 171.035 54.5625 171.02 54.9922L170.34 54.7812C170.34 53.9609 170.422 53.207 170.586 52.5195C170.75 51.8242 170.988 51.2188 171.301 50.7031C171.621 50.1875 172.012 49.7891 172.473 49.5078C172.934 49.2266 173.461 49.0859 174.055 49.0859C174.242 49.0859 174.434 49.1016 174.629 49.1328C174.824 49.1562 174.984 49.1914 175.109 49.2383ZM186.805 56.3398H190.309C190.238 57.4883 189.922 58.5078 189.359 59.3984C188.805 60.2891 188.027 60.9844 187.027 61.4844C186.035 61.9844 184.84 62.2344 183.441 62.2344C182.348 62.2344 181.367 62.0469 180.5 61.6719C179.633 61.2891 178.891 60.7422 178.273 60.0312C177.664 59.3203 177.199 58.4609 176.879 57.4531C176.559 56.4453 176.398 55.3164 176.398 54.0664V52.8828C176.398 51.6328 176.562 50.5039 176.891 49.4961C177.227 48.4805 177.703 47.6172 178.32 46.9062C178.945 46.1953 179.691 45.6484 180.559 45.2656C181.426 44.8828 182.395 44.6914 183.465 44.6914C184.887 44.6914 186.086 44.9492 187.062 45.4648C188.047 45.9805 188.809 46.6914 189.348 47.5977C189.895 48.5039 190.223 49.5352 190.332 50.6914H186.816C186.777 50.0039 186.641 49.4219 186.406 48.9453C186.172 48.4609 185.816 48.0977 185.34 47.8555C184.871 47.6055 184.246 47.4805 183.465 47.4805C182.879 47.4805 182.367 47.5898 181.93 47.8086C181.492 48.0273 181.125 48.3594 180.828 48.8047C180.531 49.25 180.309 49.8125 180.16 50.4922C180.02 51.1641 179.949 51.9531 179.949 52.8594V54.0664C179.949 54.9492 180.016 55.7266 180.148 56.3984C180.281 57.0625 180.484 57.625 180.758 58.0859C181.039 58.5391 181.398 58.8828 181.836 59.1172C182.281 59.3438 182.816 59.457 183.441 59.457C184.176 59.457 184.781 59.3398 185.258 59.1055C185.734 58.8711 186.098 58.5234 186.348 58.0625C186.605 57.6016 186.758 57.0273 186.805 56.3398ZM195.699 44V62H192.324V44H195.699ZM195.219 55.2148H194.293C194.301 54.332 194.418 53.5195 194.645 52.7773C194.871 52.0273 195.195 51.3789 195.617 50.832C196.039 50.2773 196.543 49.8477 197.129 49.543C197.723 49.2383 198.379 49.0859 199.098 49.0859C199.723 49.0859 200.289 49.1758 200.797 49.3555C201.312 49.5273 201.754 49.8086 202.121 50.1992C202.496 50.582 202.785 51.0859 202.988 51.7109C203.191 52.3359 203.293 53.0938 203.293 53.9844V62H199.895V53.9609C199.895 53.3984 199.812 52.957 199.648 52.6367C199.492 52.3086 199.262 52.0781 198.957 51.9453C198.66 51.8047 198.293 51.7344 197.855 51.7344C197.371 51.7344 196.957 51.8242 196.613 52.0039C196.277 52.1836 196.008 52.4336 195.805 52.7539C195.602 53.0664 195.453 53.4336 195.359 53.8555C195.266 54.2773 195.219 54.7305 195.219 55.2148ZM211.695 62.2344C210.711 62.2344 209.828 62.0781 209.047 61.7656C208.266 61.4453 207.602 61.0039 207.055 60.4414C206.516 59.8789 206.102 59.2266 205.812 58.4844C205.523 57.7344 205.379 56.9375 205.379 56.0938V55.625C205.379 54.6641 205.516 53.7852 205.789 52.9883C206.062 52.1914 206.453 51.5 206.961 50.9141C207.477 50.3281 208.102 49.8789 208.836 49.5664C209.57 49.2461 210.398 49.0859 211.32 49.0859C212.219 49.0859 213.016 49.2344 213.711 49.5312C214.406 49.8281 214.988 50.25 215.457 50.7969C215.934 51.3438 216.293 52 216.535 52.7656C216.777 53.5234 216.898 54.3672 216.898 55.2969V56.7031H206.82V54.4531H213.582V54.1953C213.582 53.7266 213.496 53.3086 213.324 52.9414C213.16 52.5664 212.91 52.2695 212.574 52.0508C212.238 51.832 211.809 51.7227 211.285 51.7227C210.84 51.7227 210.457 51.8203 210.137 52.0156C209.816 52.2109 209.555 52.4844 209.352 52.8359C209.156 53.1875 209.008 53.6016 208.906 54.0781C208.812 54.5469 208.766 55.0625 208.766 55.625V56.0938C208.766 56.6016 208.836 57.0703 208.977 57.5C209.125 57.9297 209.332 58.3008 209.598 58.6133C209.871 58.9258 210.199 59.168 210.582 59.3398C210.973 59.5117 211.414 59.5977 211.906 59.5977C212.516 59.5977 213.082 59.4805 213.605 59.2461C214.137 59.0039 214.594 58.6406 214.977 58.1562L216.617 59.9375C216.352 60.3203 215.988 60.6875 215.527 61.0391C215.074 61.3906 214.527 61.6797 213.887 61.9062C213.246 62.125 212.516 62.2344 211.695 62.2344ZM223.121 62H219.723V48.1953C219.723 47.2344 219.91 46.4258 220.285 45.7695C220.668 45.1055 221.203 44.6055 221.891 44.2695C222.586 43.9258 223.41 43.7539 224.363 43.7539C224.676 43.7539 224.977 43.7773 225.266 43.8242C225.555 43.8633 225.836 43.9141 226.109 43.9766L226.074 46.5195C225.926 46.4805 225.77 46.4531 225.605 46.4375C225.441 46.4219 225.25 46.4141 225.031 46.4141C224.625 46.4141 224.277 46.4844 223.988 46.625C223.707 46.7578 223.492 46.957 223.344 47.2227C223.195 47.4883 223.121 47.8125 223.121 48.1953V62ZM225.652 49.3203V51.7109H217.836V49.3203H225.652Z" fill="#888888"/>
<path d="M115.994 98.708V104.641H99.5806V98.708H115.994ZM102.151 86.0078V118H94.439V86.0078H102.151ZM121.18 86.0078V118H113.489V86.0078H121.18ZM124.805 106.354V105.893C124.805 104.15 125.054 102.546 125.552 101.081C126.05 99.6016 126.783 98.3198 127.75 97.2358C128.716 96.1519 129.91 95.3096 131.331 94.709C132.752 94.0938 134.393 93.7861 136.253 93.7861C138.128 93.7861 139.776 94.0938 141.197 94.709C142.632 95.3096 143.833 96.1519 144.8 97.2358C145.767 98.3198 146.5 99.6016 146.998 101.081C147.496 102.546 147.745 104.15 147.745 105.893V106.354C147.745 108.083 147.496 109.687 146.998 111.167C146.5 112.631 145.767 113.913 144.8 115.012C143.833 116.096 142.64 116.938 141.219 117.539C139.798 118.139 138.157 118.439 136.297 118.439C134.437 118.439 132.789 118.139 131.353 117.539C129.917 116.938 128.716 116.096 127.75 115.012C126.783 113.913 126.05 112.631 125.552 111.167C125.054 109.687 124.805 108.083 124.805 106.354ZM132.21 105.893V106.354C132.21 107.248 132.276 108.083 132.408 108.859C132.54 109.636 132.759 110.317 133.067 110.903C133.375 111.474 133.792 111.921 134.319 112.243C134.847 112.565 135.506 112.727 136.297 112.727C137.073 112.727 137.718 112.565 138.23 112.243C138.758 111.921 139.175 111.474 139.483 110.903C139.791 110.317 140.01 109.636 140.142 108.859C140.274 108.083 140.34 107.248 140.34 106.354V105.893C140.34 105.029 140.274 104.216 140.142 103.454C140.01 102.678 139.791 101.997 139.483 101.411C139.175 100.81 138.758 100.341 138.23 100.004C137.703 99.6675 137.044 99.499 136.253 99.499C135.477 99.499 134.825 99.6675 134.297 100.004C133.785 100.341 133.375 100.81 133.067 101.411C132.759 101.997 132.54 102.678 132.408 103.454C132.276 104.216 132.21 105.029 132.21 105.893ZM158.27 110.925L162.664 94.2256H167.3L165.652 102.597L161.302 118H157.588L158.27 110.925ZM156.534 94.2256L159.258 110.793L159.566 118H155.062L149.437 94.2256H156.534ZM171.211 110.441L173.958 94.2256H181.055L175.474 118H170.97L171.211 110.441ZM167.828 94.2256L172.266 110.881L172.947 118H169.19L164.927 102.641L163.345 94.2256H167.828ZM209.466 86.0078V118H201.753V86.0078H209.466ZM219.09 86.0078V91.9624H192.349V86.0078H219.09ZM216.475 106.354V105.893C216.475 104.15 216.724 102.546 217.222 101.081C217.72 99.6016 218.453 98.3198 219.419 97.2358C220.386 96.1519 221.58 95.3096 223.001 94.709C224.422 94.0938 226.062 93.7861 227.923 93.7861C229.798 93.7861 231.446 94.0938 232.867 94.709C234.302 95.3096 235.503 96.1519 236.47 97.2358C237.437 98.3198 238.169 99.6016 238.667 101.081C239.166 102.546 239.415 104.15 239.415 105.893V106.354C239.415 108.083 239.166 109.687 238.667 111.167C238.169 112.631 237.437 113.913 236.47 115.012C235.503 116.096 234.31 116.938 232.889 117.539C231.468 118.139 229.827 118.439 227.967 118.439C226.106 118.439 224.458 118.139 223.023 117.539C221.587 116.938 220.386 116.096 219.419 115.012C218.453 113.913 217.72 112.631 217.222 111.167C216.724 109.687 216.475 108.083 216.475 106.354ZM223.88 105.893V106.354C223.88 107.248 223.946 108.083 224.078 108.859C224.209 109.636 224.429 110.317 224.737 110.903C225.044 111.474 225.462 111.921 225.989 112.243C226.517 112.565 227.176 112.727 227.967 112.727C228.743 112.727 229.388 112.565 229.9 112.243C230.428 111.921 230.845 111.474 231.153 110.903C231.46 110.317 231.68 109.636 231.812 108.859C231.944 108.083 232.01 107.248 232.01 106.354V105.893C232.01 105.029 231.944 104.216 231.812 103.454C231.68 102.678 231.46 101.997 231.153 101.411C230.845 100.81 230.428 100.341 229.9 100.004C229.373 99.6675 228.714 99.499 227.923 99.499C227.146 99.499 226.495 99.6675 225.967 100.004C225.455 100.341 225.044 100.81 224.737 101.411C224.429 101.997 224.209 102.678 224.078 103.454C223.946 104.216 223.88 105.029 223.88 105.893ZM254.268 86.0078H266.858C269.319 86.0078 271.458 86.374 273.274 87.1064C275.091 87.8389 276.49 88.9229 277.471 90.3584C278.467 91.7939 278.965 93.5664 278.965 95.6758C278.965 97.5068 278.68 99.0376 278.108 100.268C277.537 101.499 276.739 102.517 275.713 103.322C274.703 104.113 273.523 104.765 272.176 105.278L269.649 106.706H259.08L259.036 100.751H266.858C267.84 100.751 268.653 100.576 269.297 100.224C269.942 99.8726 270.425 99.3745 270.748 98.73C271.084 98.0708 271.253 97.2871 271.253 96.3789C271.253 95.4561 271.084 94.665 270.748 94.0059C270.411 93.3467 269.913 92.8413 269.253 92.4897C268.609 92.1382 267.811 91.9624 266.858 91.9624H261.98V118H254.268V86.0078ZM271.78 118L264.705 103.85L272.879 103.806L280.042 117.67V118H271.78ZM297.159 112.221V94.2256H304.585V118H297.642L297.159 112.221ZM297.862 107.387L299.795 107.343C299.795 108.94 299.605 110.419 299.224 111.782C298.843 113.129 298.279 114.301 297.532 115.297C296.8 116.293 295.892 117.07 294.808 117.626C293.738 118.168 292.5 118.439 291.094 118.439C289.922 118.439 288.846 118.278 287.864 117.956C286.897 117.619 286.062 117.099 285.359 116.396C284.656 115.678 284.107 114.763 283.711 113.649C283.331 112.521 283.14 111.174 283.14 109.606V94.2256H290.545V109.65C290.545 110.178 290.611 110.632 290.743 111.013C290.875 111.394 291.065 111.716 291.314 111.979C291.563 112.229 291.871 112.419 292.237 112.551C292.618 112.668 293.05 112.727 293.533 112.727C294.646 112.727 295.518 112.492 296.148 112.023C296.778 111.555 297.217 110.917 297.466 110.112C297.73 109.306 297.862 108.398 297.862 107.387ZM315.945 99.3013V118H308.541V94.2256H315.484L315.945 99.3013ZM315.066 105.3L313.331 105.344C313.331 103.527 313.55 101.909 313.99 100.488C314.429 99.0522 315.052 97.8364 315.857 96.8403C316.663 95.8442 317.623 95.0898 318.736 94.5771C319.864 94.0498 321.116 93.7861 322.493 93.7861C323.592 93.7861 324.595 93.9473 325.503 94.2695C326.426 94.5918 327.217 95.1118 327.876 95.8296C328.55 96.5474 329.063 97.4995 329.415 98.686C329.781 99.8579 329.964 101.308 329.964 103.037V118H322.515V103.015C322.515 102.062 322.383 101.337 322.12 100.839C321.856 100.327 321.475 99.9751 320.977 99.7847C320.479 99.5942 319.871 99.499 319.153 99.499C318.392 99.499 317.747 99.6455 317.22 99.9385C316.692 100.231 316.268 100.642 315.945 101.169C315.638 101.682 315.411 102.29 315.264 102.993C315.132 103.696 315.066 104.465 315.066 105.3ZM345.85 107.871H339.544C339.544 106.582 339.632 105.446 339.808 104.465C339.998 103.469 340.32 102.575 340.774 101.784C341.229 100.993 341.844 100.261 342.62 99.5869C343.309 99.0156 343.902 98.4663 344.4 97.939C344.898 97.4116 345.279 96.877 345.542 96.335C345.806 95.793 345.938 95.2144 345.938 94.5991C345.938 93.8374 345.828 93.2148 345.608 92.7314C345.403 92.248 345.088 91.8892 344.664 91.6548C344.253 91.4058 343.733 91.2812 343.104 91.2812C342.591 91.2812 342.107 91.4058 341.653 91.6548C341.214 91.9038 340.855 92.292 340.577 92.8193C340.298 93.332 340.145 94.0132 340.115 94.8628H332.667C332.71 92.6802 333.194 90.9077 334.117 89.5454C335.054 88.1685 336.299 87.165 337.852 86.5352C339.419 85.8906 341.17 85.5684 343.104 85.5684C345.242 85.5684 347.081 85.8979 348.619 86.5571C350.157 87.2163 351.336 88.1978 352.156 89.5015C352.977 90.7905 353.387 92.3799 353.387 94.2695C353.387 95.5293 353.145 96.6279 352.662 97.5654C352.193 98.4883 351.556 99.3525 350.75 100.158C349.959 100.949 349.073 101.799 348.091 102.707C347.242 103.454 346.663 104.216 346.355 104.992C346.048 105.754 345.879 106.713 345.85 107.871ZM338.643 114.55C338.643 113.496 339.024 112.617 339.786 111.914C340.547 111.196 341.536 110.837 342.752 110.837C343.968 110.837 344.957 111.196 345.718 111.914C346.48 112.617 346.861 113.496 346.861 114.55C346.861 115.605 346.48 116.491 345.718 117.209C344.957 117.912 343.968 118.264 342.752 118.264C341.536 118.264 340.547 117.912 339.786 117.209C339.024 116.491 338.643 115.605 338.643 114.55Z" fill="#424241"/>
<path d="M1363 15C1363 6.71573 1356.28 0 1348 0H1134V167H1348C1356.28 167 1363 160.284 1363 152V15Z" fill="#5ACE7F"/>
<path d="M1260.77 81.3079C1263.96 81.3079 1267.09 82.2553 1269.74 84.0303C1272.4 85.8053 1274.47 88.3282 1275.69 91.2799C1276.92 94.2316 1277.24 97.4796 1276.61 100.613C1275.99 103.747 1274.45 106.625 1272.19 108.884C1269.93 111.143 1267.05 112.682 1263.92 113.305C1260.79 113.928 1257.54 113.608 1254.59 112.386C1251.64 111.163 1249.11 109.093 1247.34 106.436C1245.56 103.78 1244.62 100.657 1244.62 97.4617C1244.62 93.1774 1246.32 89.0686 1249.35 86.0392C1252.38 83.0098 1256.48 81.3079 1260.77 81.3079V81.3079ZM1260.77 75.9233C1256.51 75.9233 1252.35 77.1865 1248.8 79.5532C1245.26 81.9198 1242.5 85.2837 1240.87 89.2193C1239.24 93.1549 1238.81 97.4856 1239.64 101.664C1240.48 105.842 1242.53 109.679 1245.54 112.692C1248.55 115.704 1252.39 117.755 1256.57 118.586C1260.75 119.417 1265.08 118.991 1269.01 117.361C1272.95 115.73 1276.31 112.97 1278.68 109.428C1281.04 105.886 1282.31 101.722 1282.31 97.4617C1282.31 91.7493 1280.04 86.271 1276 82.2317C1271.96 78.1925 1266.48 75.9233 1260.77 75.9233Z" fill="white"/>
<path d="M1274.23 49H1220.38C1218.96 49 1217.59 49.5673 1216.58 50.5771C1215.57 51.5869 1215 52.9565 1215 54.3846V108.231C1215 109.659 1215.57 111.028 1216.58 112.038C1217.59 113.048 1218.96 113.615 1220.38 113.615H1231.15V108.231H1220.38V70.5384H1279.62V54.3846C1279.62 52.9565 1279.05 51.5869 1278.04 50.5771C1277.03 49.5673 1275.66 49 1274.23 49V49ZM1220.38 65.1538V54.3846H1274.23V65.1538H1220.38Z" fill="white"/>
<path d="M1255.38 89.3849V105.539L1268.85 97.4618L1255.38 89.3849Z" fill="white"/>
</svg>
