<svg width="1363" height="301" viewBox="0 0 1363 301" fill="none" xmlns="http://www.w3.org/2000/svg">
<rect width="1363" height="301" rx="15" fill="#FDFDFB"/>
<path d="M0 15C0 6.71573 6.71573 0 15 0H37V301H15C6.71573 301 0 294.284 0 286V15Z" fill="#5ACE7F"/>
<path d="M110.933 127.376H100.862L100.809 121.2H108.973C110.441 121.2 111.613 121.039 112.491 120.716C113.368 120.376 114.004 119.884 114.397 119.239C114.809 118.595 115.015 117.789 115.015 116.822C115.015 115.712 114.809 114.817 114.397 114.137C113.986 113.456 113.332 112.964 112.437 112.66C111.56 112.337 110.423 112.176 109.026 112.176H104.407V144H94.981V104.898H109.026C111.443 104.898 113.601 105.122 115.499 105.57C117.396 106 119.008 106.662 120.333 107.557C121.675 108.452 122.696 109.58 123.394 110.941C124.092 112.284 124.441 113.868 124.441 115.694C124.441 117.288 124.101 118.783 123.421 120.179C122.741 121.576 121.604 122.713 120.01 123.59C118.435 124.449 116.277 124.897 113.538 124.933L110.933 127.376ZM110.557 144H98.5796L101.802 136.749H110.557C111.846 136.749 112.876 136.552 113.646 136.158C114.433 135.746 114.997 135.209 115.337 134.547C115.695 133.867 115.875 133.115 115.875 132.291C115.875 131.288 115.704 130.42 115.364 129.686C115.042 128.952 114.523 128.388 113.807 127.994C113.09 127.582 112.133 127.376 110.933 127.376H103.011L103.064 121.2H112.544L114.747 123.67C117.361 123.563 119.428 123.93 120.95 124.771C122.49 125.613 123.591 126.723 124.253 128.102C124.916 129.48 125.247 130.921 125.247 132.425C125.247 134.986 124.692 137.125 123.582 138.844C122.49 140.562 120.852 141.852 118.667 142.711C116.483 143.57 113.78 144 110.557 144ZM147.027 136.937V114.942H156.104V144H147.618L147.027 136.937ZM147.886 131.029L150.25 130.975C150.25 132.927 150.017 134.735 149.551 136.4C149.086 138.047 148.396 139.479 147.483 140.697C146.588 141.914 145.478 142.863 144.153 143.543C142.846 144.206 141.333 144.537 139.615 144.537C138.182 144.537 136.867 144.34 135.667 143.946C134.485 143.535 133.465 142.899 132.605 142.04C131.746 141.162 131.075 140.043 130.591 138.683C130.126 137.304 129.893 135.657 129.893 133.741V114.942H138.943V133.795C138.943 134.439 139.024 134.994 139.185 135.46C139.346 135.925 139.579 136.319 139.883 136.642C140.188 136.946 140.564 137.179 141.011 137.34C141.477 137.483 142.005 137.555 142.596 137.555C143.956 137.555 145.022 137.268 145.792 136.695C146.561 136.122 147.098 135.344 147.403 134.359C147.725 133.374 147.886 132.264 147.886 131.029ZM176.407 114.942V121.227H158.897V114.942H176.407ZM162.576 107.718H171.626V134.52C171.626 135.29 171.716 135.89 171.895 136.319C172.074 136.731 172.378 137.027 172.808 137.206C173.256 137.367 173.847 137.447 174.581 137.447C175.1 137.447 175.529 137.438 175.87 137.42C176.21 137.385 176.532 137.34 176.836 137.286V143.758C176.067 144.009 175.261 144.197 174.419 144.322C173.578 144.465 172.683 144.537 171.734 144.537C169.8 144.537 168.144 144.233 166.766 143.624C165.405 143.015 164.367 142.057 163.65 140.75C162.934 139.444 162.576 137.743 162.576 135.648V107.718ZM189.566 102.75V144H180.489V102.75H189.566ZM209.224 144.537C206.861 144.537 204.748 144.17 202.886 143.436C201.024 142.684 199.449 141.655 198.16 140.348C196.889 139.041 195.913 137.537 195.232 135.836C194.57 134.135 194.239 132.336 194.239 130.438V129.417C194.239 127.287 194.534 125.318 195.125 123.509C195.716 121.683 196.593 120.09 197.757 118.729C198.921 117.368 200.38 116.312 202.134 115.56C203.889 114.79 205.93 114.405 208.257 114.405C210.316 114.405 212.16 114.736 213.79 115.399C215.419 116.061 216.797 117.01 217.925 118.246C219.071 119.481 219.939 120.976 220.53 122.73C221.139 124.485 221.443 126.454 221.443 128.639V132.318H197.703V126.651H212.608V125.953C212.626 124.986 212.456 124.163 212.098 123.482C211.757 122.802 211.256 122.283 210.594 121.925C209.931 121.567 209.126 121.388 208.177 121.388C207.192 121.388 206.377 121.603 205.733 122.032C205.106 122.462 204.614 123.053 204.256 123.805C203.916 124.539 203.674 125.389 203.531 126.356C203.388 127.323 203.316 128.343 203.316 129.417V130.438C203.316 131.512 203.459 132.488 203.746 133.365C204.05 134.243 204.48 134.994 205.035 135.621C205.608 136.23 206.288 136.704 207.076 137.044C207.881 137.385 208.794 137.555 209.815 137.555C211.05 137.555 212.268 137.322 213.467 136.856C214.667 136.391 215.696 135.621 216.556 134.547L220.665 139.435C220.074 140.276 219.232 141.091 218.14 141.878C217.066 142.666 215.777 143.311 214.273 143.812C212.769 144.295 211.086 144.537 209.224 144.537ZM234.253 122.14V144H225.203V114.942H233.663L234.253 122.14ZM242.847 114.728L242.686 123.133C242.328 123.097 241.845 123.053 241.236 122.999C240.627 122.945 240.117 122.918 239.705 122.918C238.649 122.918 237.736 123.044 236.966 123.294C236.214 123.527 235.587 123.885 235.086 124.369C234.603 124.834 234.244 125.425 234.012 126.141C233.797 126.857 233.698 127.69 233.716 128.639L232.078 127.564C232.078 125.613 232.266 123.84 232.642 122.247C233.036 120.636 233.591 119.248 234.307 118.084C235.023 116.903 235.892 115.999 236.912 115.372C237.933 114.728 239.078 114.405 240.35 114.405C240.797 114.405 241.236 114.432 241.666 114.486C242.113 114.54 242.507 114.62 242.847 114.728ZM268.628 130.76H278.028C277.903 133.482 277.168 135.881 275.826 137.958C274.483 140.034 272.621 141.655 270.24 142.818C267.876 143.964 265.083 144.537 261.861 144.537C259.247 144.537 256.91 144.098 254.852 143.221C252.811 142.344 251.074 141.082 249.642 139.435C248.227 137.787 247.144 135.791 246.392 133.446C245.658 131.1 245.291 128.46 245.291 125.523V123.402C245.291 120.466 245.676 117.825 246.446 115.479C247.234 113.116 248.344 111.111 249.776 109.464C251.226 107.799 252.963 106.528 254.986 105.65C257.009 104.773 259.256 104.334 261.727 104.334C265.128 104.334 268.002 104.943 270.347 106.161C272.693 107.378 274.51 109.052 275.799 111.183C277.088 113.295 277.849 115.703 278.082 118.407H268.682C268.646 116.939 268.396 115.712 267.93 114.728C267.465 113.725 266.731 112.973 265.728 112.472C264.725 111.97 263.392 111.72 261.727 111.72C260.563 111.72 259.551 111.935 258.692 112.364C257.833 112.794 257.116 113.474 256.543 114.405C255.971 115.336 255.541 116.545 255.254 118.031C254.986 119.499 254.852 121.271 254.852 123.348V125.523C254.852 127.6 254.977 129.373 255.228 130.841C255.478 132.309 255.881 133.508 256.436 134.439C256.991 135.37 257.707 136.06 258.584 136.507C259.48 136.937 260.572 137.152 261.861 137.152C263.293 137.152 264.502 136.928 265.486 136.48C266.471 136.015 267.232 135.317 267.769 134.386C268.306 133.437 268.593 132.228 268.628 130.76ZM290.918 102.75V144H281.868V102.75H290.918ZM289.844 128.478L287.723 128.531C287.723 126.49 287.973 124.61 288.475 122.892C288.976 121.173 289.692 119.678 290.623 118.407C291.554 117.136 292.673 116.151 293.98 115.453C295.287 114.754 296.737 114.405 298.331 114.405C299.763 114.405 301.07 114.611 302.251 115.023C303.451 115.435 304.48 116.097 305.34 117.01C306.217 117.923 306.889 119.114 307.354 120.582C307.837 122.05 308.079 123.84 308.079 125.953V144H298.975V125.899C298.975 124.718 298.805 123.805 298.465 123.16C298.143 122.498 297.677 122.041 297.068 121.791C296.46 121.522 295.717 121.388 294.839 121.388C293.783 121.388 292.924 121.567 292.261 121.925C291.599 122.283 291.089 122.784 290.73 123.429C290.39 124.055 290.158 124.798 290.032 125.658C289.907 126.517 289.844 127.457 289.844 128.478ZM327.173 144.537C324.81 144.537 322.697 144.17 320.835 143.436C318.973 142.684 317.398 141.655 316.109 140.348C314.838 139.041 313.862 137.537 313.182 135.836C312.519 134.135 312.188 132.336 312.188 130.438V129.417C312.188 127.287 312.483 125.318 313.074 123.509C313.665 121.683 314.542 120.09 315.706 118.729C316.87 117.368 318.329 116.312 320.083 115.56C321.838 114.79 323.879 114.405 326.207 114.405C328.265 114.405 330.11 114.736 331.739 115.399C333.368 116.061 334.747 117.01 335.875 118.246C337.02 119.481 337.889 120.976 338.479 122.73C339.088 124.485 339.393 126.454 339.393 128.639V132.318H315.652V126.651H330.557V125.953C330.575 124.986 330.405 124.163 330.047 123.482C329.707 122.802 329.205 122.283 328.543 121.925C327.881 121.567 327.075 121.388 326.126 121.388C325.141 121.388 324.327 121.603 323.682 122.032C323.056 122.462 322.563 123.053 322.205 123.805C321.865 124.539 321.623 125.389 321.48 126.356C321.337 127.323 321.265 128.343 321.265 129.417V130.438C321.265 131.512 321.408 132.488 321.695 133.365C321.999 134.243 322.429 134.994 322.984 135.621C323.557 136.23 324.237 136.704 325.025 137.044C325.831 137.385 326.744 137.555 327.764 137.555C329 137.555 330.217 137.322 331.417 136.856C332.616 136.391 333.646 135.621 334.505 134.547L338.614 139.435C338.023 140.276 337.181 141.091 336.089 141.878C335.015 142.666 333.726 143.311 332.222 143.812C330.718 144.295 329.035 144.537 327.173 144.537ZM354.163 144H345.059V112.579C345.059 110.323 345.516 108.425 346.429 106.886C347.342 105.346 348.631 104.182 350.296 103.395C351.961 102.589 353.93 102.186 356.204 102.186C356.992 102.186 357.735 102.24 358.433 102.347C359.131 102.455 359.812 102.589 360.474 102.75L360.501 109.41C360.179 109.321 359.847 109.258 359.507 109.222C359.167 109.186 358.746 109.168 358.245 109.168C357.368 109.168 356.625 109.303 356.016 109.571C355.407 109.822 354.942 110.207 354.62 110.726C354.315 111.227 354.163 111.845 354.163 112.579V144ZM359.803 114.942V121.227H340.87V114.942H359.803Z" fill="black"/>
<path d="M96.563 55.1172H100.904L107.295 73.3862L113.687 55.1172H118.028L109.039 80H105.552L96.563 55.1172ZM94.2217 55.1172H98.5454L99.3315 72.9248V80H94.2217V55.1172ZM116.045 55.1172H120.386V80H115.259V72.9248L116.045 55.1172ZM134.554 75.8301V67.5928C134.554 67.0003 134.457 66.4933 134.263 66.0718C134.069 65.6388 133.768 65.3027 133.357 65.0635C132.959 64.8242 132.44 64.7046 131.802 64.7046C131.255 64.7046 130.783 64.8014 130.384 64.9951C129.985 65.1774 129.677 65.4451 129.461 65.7983C129.244 66.1401 129.136 66.5446 129.136 67.0117H124.214C124.214 66.2256 124.397 65.4793 124.761 64.7729C125.126 64.0666 125.656 63.4456 126.351 62.9102C127.046 62.3633 127.872 61.936 128.829 61.6284C129.797 61.3208 130.879 61.167 132.076 61.167C133.511 61.167 134.787 61.4062 135.904 61.8848C137.02 62.3633 137.898 63.0811 138.536 64.0381C139.185 64.9951 139.51 66.1914 139.51 67.627V75.5396C139.51 76.5535 139.572 77.3853 139.698 78.0347C139.823 78.6727 140.005 79.231 140.245 79.7095V80H135.271C135.032 79.4987 134.85 78.8721 134.725 78.1201C134.611 77.3568 134.554 76.5934 134.554 75.8301ZM135.203 68.7378L135.237 71.5234H132.486C131.836 71.5234 131.272 71.5975 130.794 71.7456C130.315 71.8937 129.922 72.1045 129.615 72.3779C129.307 72.64 129.079 72.9476 128.931 73.3008C128.794 73.654 128.726 74.0413 128.726 74.4629C128.726 74.8844 128.823 75.2661 129.017 75.6079C129.21 75.9383 129.489 76.2004 129.854 76.394C130.219 76.5763 130.646 76.6675 131.136 76.6675C131.876 76.6675 132.52 76.5194 133.067 76.2231C133.614 75.9269 134.035 75.5623 134.332 75.1294C134.639 74.6965 134.799 74.2863 134.81 73.8989L136.109 75.9839C135.927 76.451 135.676 76.9352 135.357 77.4365C135.049 77.9378 134.656 78.4106 134.178 78.855C133.699 79.2879 133.124 79.6468 132.452 79.9316C131.779 80.2051 130.982 80.3418 130.059 80.3418C128.886 80.3418 127.82 80.1082 126.863 79.6411C125.918 79.1626 125.166 78.5075 124.607 77.6758C124.061 76.8327 123.787 75.8757 123.787 74.8047C123.787 73.8363 123.969 72.9761 124.334 72.2241C124.699 71.4722 125.234 70.8398 125.94 70.3271C126.658 69.8031 127.553 69.41 128.624 69.1479C129.694 68.8745 130.936 68.7378 132.349 68.7378H135.203ZM148.226 65.542V80H143.304V61.5088H147.935L148.226 65.542ZM153.797 61.3892L153.711 65.9521C153.472 65.918 153.182 65.8895 152.84 65.8667C152.509 65.8325 152.208 65.8154 151.934 65.8154C151.239 65.8154 150.635 65.9066 150.123 66.0889C149.621 66.2598 149.2 66.5161 148.858 66.8579C148.528 67.1997 148.277 67.6156 148.106 68.1055C147.946 68.5954 147.855 69.1536 147.833 69.7803L146.841 69.4727C146.841 68.2764 146.961 67.1769 147.2 66.1743C147.439 65.1603 147.787 64.2773 148.243 63.5254C148.71 62.7734 149.279 62.1924 149.952 61.7822C150.624 61.3721 151.393 61.167 152.259 61.167C152.532 61.167 152.811 61.1898 153.096 61.2354C153.381 61.2695 153.615 61.3208 153.797 61.3892ZM161.316 61.5088V80H156.377V61.5088H161.316ZM156.07 56.6895C156.07 55.9717 156.32 55.3792 156.822 54.9121C157.323 54.445 157.995 54.2114 158.838 54.2114C159.67 54.2114 160.337 54.445 160.838 54.9121C161.351 55.3792 161.607 55.9717 161.607 56.6895C161.607 57.4072 161.351 57.9997 160.838 58.4668C160.337 58.9339 159.67 59.1675 158.838 59.1675C157.995 59.1675 157.323 58.9339 156.822 58.4668C156.32 57.9997 156.07 57.4072 156.07 56.6895ZM175.364 75.8301V67.5928C175.364 67.0003 175.267 66.4933 175.074 66.0718C174.88 65.6388 174.578 65.3027 174.168 65.0635C173.769 64.8242 173.251 64.7046 172.613 64.7046C172.066 64.7046 171.593 64.8014 171.194 64.9951C170.796 65.1774 170.488 65.4451 170.271 65.7983C170.055 66.1401 169.947 66.5446 169.947 67.0117H165.025C165.025 66.2256 165.207 65.4793 165.572 64.7729C165.936 64.0666 166.466 63.4456 167.161 62.9102C167.856 62.3633 168.682 61.936 169.639 61.6284C170.608 61.3208 171.69 61.167 172.886 61.167C174.322 61.167 175.598 61.4062 176.714 61.8848C177.831 62.3633 178.708 63.0811 179.346 64.0381C179.996 64.9951 180.32 66.1914 180.32 67.627V75.5396C180.32 76.5535 180.383 77.3853 180.508 78.0347C180.634 78.6727 180.816 79.231 181.055 79.7095V80H176.082C175.843 79.4987 175.66 78.8721 175.535 78.1201C175.421 77.3568 175.364 76.5934 175.364 75.8301ZM176.014 68.7378L176.048 71.5234H173.296C172.647 71.5234 172.083 71.5975 171.604 71.7456C171.126 71.8937 170.733 72.1045 170.425 72.3779C170.118 72.64 169.89 72.9476 169.742 73.3008C169.605 73.654 169.537 74.0413 169.537 74.4629C169.537 74.8844 169.633 75.2661 169.827 75.6079C170.021 75.9383 170.3 76.2004 170.665 76.394C171.029 76.5763 171.456 76.6675 171.946 76.6675C172.687 76.6675 173.331 76.5194 173.877 76.2231C174.424 75.9269 174.846 75.5623 175.142 75.1294C175.45 74.6965 175.609 74.2863 175.621 73.8989L176.919 75.9839C176.737 76.451 176.486 76.9352 176.167 77.4365C175.86 77.9378 175.467 78.4106 174.988 78.855C174.51 79.2879 173.934 79.6468 173.262 79.9316C172.59 80.2051 171.792 80.3418 170.87 80.3418C169.696 80.3418 168.631 80.1082 167.674 79.6411C166.728 79.1626 165.976 78.5075 165.418 77.6758C164.871 76.8327 164.598 75.8757 164.598 74.8047C164.598 73.8363 164.78 72.9761 165.145 72.2241C165.509 71.4722 166.045 70.8398 166.751 70.3271C167.469 69.8031 168.363 69.41 169.434 69.1479C170.505 68.8745 171.747 68.7378 173.16 68.7378H176.014ZM189.036 65.3369V80H184.097V61.5088H188.729L189.036 65.3369ZM188.353 70.105H186.985C186.985 68.8175 187.139 67.6326 187.447 66.5503C187.766 65.4565 188.227 64.5109 188.831 63.7134C189.446 62.9045 190.204 62.2778 191.104 61.8335C192.004 61.3892 193.047 61.167 194.231 61.167C195.052 61.167 195.804 61.2923 196.487 61.543C197.171 61.7822 197.758 62.1639 198.248 62.688C198.749 63.2007 199.136 63.8729 199.41 64.7046C199.683 65.5249 199.82 66.5104 199.82 67.6611V80H194.898V68.208C194.898 67.3649 194.784 66.7155 194.556 66.2598C194.328 65.804 194.004 65.485 193.582 65.3027C193.172 65.1204 192.676 65.0293 192.095 65.0293C191.457 65.0293 190.899 65.1603 190.42 65.4224C189.953 65.6844 189.566 66.049 189.258 66.5161C188.951 66.9718 188.723 67.5073 188.575 68.1226C188.427 68.7378 188.353 69.3986 188.353 70.105ZM199.358 69.541L197.598 69.7632C197.598 68.5555 197.746 67.4333 198.042 66.3965C198.35 65.3597 198.8 64.4482 199.393 63.6621C199.996 62.876 200.743 62.2664 201.631 61.8335C202.52 61.3892 203.545 61.167 204.708 61.167C205.596 61.167 206.405 61.298 207.134 61.5601C207.863 61.8107 208.484 62.2152 208.997 62.7734C209.521 63.3203 209.92 64.0381 210.193 64.9268C210.478 65.8154 210.621 66.9035 210.621 68.1909V80H205.682V68.1909C205.682 67.3364 205.568 66.687 205.34 66.2427C205.123 65.7869 204.804 65.4736 204.383 65.3027C203.973 65.1204 203.483 65.0293 202.913 65.0293C202.321 65.0293 201.802 65.1489 201.358 65.3882C200.914 65.616 200.543 65.9351 200.247 66.3452C199.951 66.7554 199.729 67.2339 199.581 67.7808C199.432 68.3162 199.358 68.903 199.358 69.541ZM240.152 76.001V80H226.907V76.001H240.152ZM228.582 55.1172V80H223.455V55.1172H228.582ZM238.426 65.2515V69.1479H226.907V65.2515H238.426ZM240.135 55.1172V59.1333H226.907V55.1172H240.135ZM248.03 53.75V80H243.091V53.75H248.03ZM270.401 76.001V80H252.764V76.001H270.401ZM270.145 57.9712L255.037 80H251.431V77.0605L266.658 55.1172H270.145V57.9712ZM268.384 55.1172V59.1333H251.448V55.1172H268.384ZM283.338 75.8301V67.5928C283.338 67.0003 283.241 66.4933 283.047 66.0718C282.854 65.6388 282.552 65.3027 282.142 65.0635C281.743 64.8242 281.224 64.7046 280.586 64.7046C280.04 64.7046 279.567 64.8014 279.168 64.9951C278.769 65.1774 278.462 65.4451 278.245 65.7983C278.029 66.1401 277.92 66.5446 277.92 67.0117H272.999C272.999 66.2256 273.181 65.4793 273.545 64.7729C273.91 64.0666 274.44 63.4456 275.135 62.9102C275.83 62.3633 276.656 61.936 277.613 61.6284C278.581 61.3208 279.664 61.167 280.86 61.167C282.295 61.167 283.571 61.4062 284.688 61.8848C285.805 62.3633 286.682 63.0811 287.32 64.0381C287.969 64.9951 288.294 66.1914 288.294 67.627V75.5396C288.294 76.5535 288.357 77.3853 288.482 78.0347C288.607 78.6727 288.79 79.231 289.029 79.7095V80H284.056C283.816 79.4987 283.634 78.8721 283.509 78.1201C283.395 77.3568 283.338 76.5934 283.338 75.8301ZM283.987 68.7378L284.021 71.5234H281.27C280.621 71.5234 280.057 71.5975 279.578 71.7456C279.1 71.8937 278.707 72.1045 278.399 72.3779C278.091 72.64 277.863 72.9476 277.715 73.3008C277.579 73.654 277.51 74.0413 277.51 74.4629C277.51 74.8844 277.607 75.2661 277.801 75.6079C277.994 75.9383 278.274 76.2004 278.638 76.394C279.003 76.5763 279.43 76.6675 279.92 76.6675C280.66 76.6675 281.304 76.5194 281.851 76.2231C282.398 75.9269 282.819 75.5623 283.116 75.1294C283.423 74.6965 283.583 74.2863 283.594 73.8989L284.893 75.9839C284.711 76.451 284.46 76.9352 284.141 77.4365C283.833 77.9378 283.44 78.4106 282.962 78.855C282.483 79.2879 281.908 79.6468 281.236 79.9316C280.564 80.2051 279.766 80.3418 278.843 80.3418C277.67 80.3418 276.604 80.1082 275.647 79.6411C274.702 79.1626 273.95 78.5075 273.392 77.6758C272.845 76.8327 272.571 75.8757 272.571 74.8047C272.571 73.8363 272.754 72.9761 273.118 72.2241C273.483 71.4722 274.018 70.8398 274.725 70.3271C275.442 69.8031 276.337 69.41 277.408 69.1479C278.479 68.8745 279.721 68.7378 281.133 68.7378H283.987ZM302.068 75.8301V67.5928C302.068 67.0003 301.972 66.4933 301.778 66.0718C301.584 65.6388 301.282 65.3027 300.872 65.0635C300.473 64.8242 299.955 64.7046 299.317 64.7046C298.77 64.7046 298.297 64.8014 297.898 64.9951C297.5 65.1774 297.192 65.4451 296.976 65.7983C296.759 66.1401 296.651 66.5446 296.651 67.0117H291.729C291.729 66.2256 291.911 65.4793 292.276 64.7729C292.64 64.0666 293.17 63.4456 293.865 62.9102C294.56 62.3633 295.386 61.936 296.343 61.6284C297.312 61.3208 298.394 61.167 299.59 61.167C301.026 61.167 302.302 61.4062 303.418 61.8848C304.535 62.3633 305.412 63.0811 306.05 64.0381C306.7 64.9951 307.024 66.1914 307.024 67.627V75.5396C307.024 76.5535 307.087 77.3853 307.212 78.0347C307.338 78.6727 307.52 79.231 307.759 79.7095V80H302.786C302.547 79.4987 302.365 78.8721 302.239 78.1201C302.125 77.3568 302.068 76.5934 302.068 75.8301ZM302.718 68.7378L302.752 71.5234H300C299.351 71.5234 298.787 71.5975 298.309 71.7456C297.83 71.8937 297.437 72.1045 297.129 72.3779C296.822 72.64 296.594 72.9476 296.446 73.3008C296.309 73.654 296.241 74.0413 296.241 74.4629C296.241 74.8844 296.338 75.2661 296.531 75.6079C296.725 75.9383 297.004 76.2004 297.369 76.394C297.733 76.5763 298.16 76.6675 298.65 76.6675C299.391 76.6675 300.035 76.5194 300.582 76.2231C301.128 75.9269 301.55 75.5623 301.846 75.1294C302.154 74.6965 302.313 74.2863 302.325 73.8989L303.624 75.9839C303.441 76.451 303.191 76.9352 302.872 77.4365C302.564 77.9378 302.171 78.4106 301.692 78.855C301.214 79.2879 300.639 79.6468 299.966 79.9316C299.294 80.2051 298.497 80.3418 297.574 80.3418C296.4 80.3418 295.335 80.1082 294.378 79.6411C293.432 79.1626 292.68 78.5075 292.122 77.6758C291.575 76.8327 291.302 75.8757 291.302 74.8047C291.302 73.8363 291.484 72.9761 291.849 72.2241C292.213 71.4722 292.749 70.8398 293.455 70.3271C294.173 69.8031 295.067 69.41 296.138 69.1479C297.209 68.8745 298.451 68.7378 299.864 68.7378H302.718ZM319.876 61.5088V64.9951H309.109V61.5088H319.876ZM311.775 56.9458H316.697V74.4287C316.697 74.9642 316.766 75.3743 316.902 75.6592C317.05 75.944 317.267 76.1434 317.552 76.2573C317.837 76.3599 318.195 76.4111 318.628 76.4111C318.936 76.4111 319.209 76.3997 319.449 76.377C319.699 76.3428 319.91 76.3086 320.081 76.2744L320.098 79.8975C319.677 80.0342 319.221 80.1424 318.731 80.2222C318.241 80.3019 317.7 80.3418 317.107 80.3418C316.025 80.3418 315.079 80.1652 314.271 79.812C313.473 79.4474 312.858 78.8664 312.425 78.0688C311.992 77.2713 311.775 76.2231 311.775 74.9243V56.9458ZM332.659 75.8301V67.5928C332.659 67.0003 332.562 66.4933 332.369 66.0718C332.175 65.6388 331.873 65.3027 331.463 65.0635C331.064 64.8242 330.546 64.7046 329.908 64.7046C329.361 64.7046 328.888 64.8014 328.489 64.9951C328.09 65.1774 327.783 65.4451 327.566 65.7983C327.35 66.1401 327.242 66.5446 327.242 67.0117H322.32C322.32 66.2256 322.502 65.4793 322.867 64.7729C323.231 64.0666 323.761 63.4456 324.456 62.9102C325.151 62.3633 325.977 61.936 326.934 61.6284C327.903 61.3208 328.985 61.167 330.181 61.167C331.617 61.167 332.893 61.4062 334.009 61.8848C335.126 62.3633 336.003 63.0811 336.641 64.0381C337.291 64.9951 337.615 66.1914 337.615 67.627V75.5396C337.615 76.5535 337.678 77.3853 337.803 78.0347C337.929 78.6727 338.111 79.231 338.35 79.7095V80H333.377C333.138 79.4987 332.955 78.8721 332.83 78.1201C332.716 77.3568 332.659 76.5934 332.659 75.8301ZM333.309 68.7378L333.343 71.5234H330.591C329.942 71.5234 329.378 71.5975 328.899 71.7456C328.421 71.8937 328.028 72.1045 327.72 72.3779C327.413 72.64 327.185 72.9476 327.037 73.3008C326.9 73.654 326.832 74.0413 326.832 74.4629C326.832 74.8844 326.928 75.2661 327.122 75.6079C327.316 75.9383 327.595 76.2004 327.959 76.394C328.324 76.5763 328.751 76.6675 329.241 76.6675C329.982 76.6675 330.625 76.5194 331.172 76.2231C331.719 75.9269 332.141 75.5623 332.437 75.1294C332.745 74.6965 332.904 74.2863 332.916 73.8989L334.214 75.9839C334.032 76.451 333.781 76.9352 333.462 77.4365C333.155 77.9378 332.762 78.4106 332.283 78.855C331.805 79.2879 331.229 79.6468 330.557 79.9316C329.885 80.2051 329.087 80.3418 328.165 80.3418C326.991 80.3418 325.926 80.1082 324.969 79.6411C324.023 79.1626 323.271 78.5075 322.713 77.6758C322.166 76.8327 321.893 75.8757 321.893 74.8047C321.893 73.8363 322.075 72.9761 322.439 72.2241C322.804 71.4722 323.34 70.8398 324.046 70.3271C324.764 69.8031 325.658 69.41 326.729 69.1479C327.8 68.8745 329.042 68.7378 330.455 68.7378H333.309ZM346.331 65.542V80H341.409V61.5088H346.041L346.331 65.542ZM351.902 61.3892L351.817 65.9521C351.578 65.918 351.287 65.8895 350.945 65.8667C350.615 65.8325 350.313 65.8154 350.04 65.8154C349.345 65.8154 348.741 65.9066 348.228 66.0889C347.727 66.2598 347.305 66.5161 346.963 66.8579C346.633 67.1997 346.382 67.6156 346.211 68.1055C346.052 68.5954 345.961 69.1536 345.938 69.7803L344.947 69.4727C344.947 68.2764 345.066 67.1769 345.306 66.1743C345.545 65.1603 345.892 64.2773 346.348 63.5254C346.815 62.7734 347.385 62.1924 348.057 61.7822C348.729 61.3721 349.498 61.167 350.364 61.167C350.638 61.167 350.917 61.1898 351.202 61.2354C351.486 61.2695 351.72 61.3208 351.902 61.3892ZM359.422 61.5088V80H354.483V61.5088H359.422ZM354.175 56.6895C354.175 55.9717 354.426 55.3792 354.927 54.9121C355.429 54.445 356.101 54.2114 356.944 54.2114C357.776 54.2114 358.442 54.445 358.943 54.9121C359.456 55.3792 359.712 55.9717 359.712 56.6895C359.712 57.4072 359.456 57.9997 358.943 58.4668C358.442 58.9339 357.776 59.1675 356.944 59.1675C356.101 59.1675 355.429 58.9339 354.927 58.4668C354.426 57.9997 354.175 57.4072 354.175 56.6895Z" fill="#888888"/>
<rect x="92" y="181" width="1179" height="80" rx="13.3333" fill="#CCCCCC"/>
<rect x="107" y="196.333" width="208" height="49.3333" rx="4.66667" fill="#888888" stroke="#888888" stroke-width="4"/>
<path d="M183.833 213.167V228.333H180.177V213.167H183.833ZM189.729 219.479V222.292H182.792V219.479H189.729ZM190.323 213.167V215.99H182.792V213.167H190.323ZM195.385 212.333V228.333H191.865V212.333H195.385ZM204.135 225.594V217.062H207.656V228.333H204.365L204.135 225.594ZM204.469 223.302L205.385 223.281C205.385 224.038 205.295 224.74 205.115 225.385C204.934 226.024 204.667 226.58 204.313 227.052C203.965 227.524 203.535 227.892 203.021 228.156C202.514 228.413 201.927 228.542 201.26 228.542C200.705 228.542 200.194 228.465 199.729 228.312C199.271 228.153 198.875 227.906 198.542 227.573C198.208 227.233 197.948 226.799 197.76 226.271C197.58 225.736 197.49 225.097 197.49 224.354V217.062H201V224.375C201 224.625 201.031 224.84 201.094 225.021C201.156 225.201 201.247 225.354 201.365 225.479C201.483 225.597 201.628 225.687 201.802 225.75C201.983 225.806 202.188 225.833 202.417 225.833C202.944 225.833 203.358 225.722 203.656 225.5C203.955 225.278 204.163 224.976 204.281 224.594C204.406 224.212 204.469 223.781 204.469 223.302ZM215.531 217.062V219.5H208.74V217.062H215.531ZM210.167 214.26H213.677V224.656C213.677 224.955 213.712 225.187 213.781 225.354C213.851 225.514 213.969 225.628 214.135 225.698C214.309 225.76 214.538 225.792 214.823 225.792C215.024 225.792 215.191 225.788 215.323 225.781C215.455 225.767 215.58 225.75 215.698 225.729V228.24C215.399 228.337 215.087 228.41 214.76 228.458C214.434 228.514 214.087 228.542 213.719 228.542C212.969 228.542 212.326 228.424 211.792 228.187C211.264 227.951 210.861 227.58 210.583 227.073C210.306 226.566 210.167 225.906 210.167 225.094V214.26ZM222.865 217.062V219.5H216.073V217.062H222.865ZM217.5 214.26H221.01V224.656C221.01 224.955 221.045 225.187 221.115 225.354C221.184 225.514 221.302 225.628 221.469 225.698C221.642 225.76 221.872 225.792 222.156 225.792C222.358 225.792 222.524 225.788 222.656 225.781C222.788 225.767 222.913 225.75 223.031 225.729V228.24C222.733 228.337 222.42 228.41 222.094 228.458C221.767 228.514 221.42 228.542 221.052 228.542C220.302 228.542 219.66 228.424 219.125 228.187C218.597 227.951 218.194 227.58 217.917 227.073C217.639 226.566 217.5 225.906 217.5 225.094V214.26ZM229.719 228.542C228.802 228.542 227.983 228.399 227.26 228.115C226.538 227.823 225.927 227.424 225.427 226.917C224.934 226.41 224.556 225.826 224.292 225.167C224.035 224.507 223.906 223.809 223.906 223.073V222.677C223.906 221.851 224.021 221.087 224.25 220.385C224.479 219.677 224.819 219.059 225.271 218.531C225.722 218.003 226.288 217.594 226.969 217.302C227.649 217.003 228.441 216.854 229.344 216.854C230.142 216.854 230.858 216.983 231.49 217.24C232.122 217.497 232.656 217.865 233.094 218.344C233.538 218.823 233.875 219.403 234.104 220.083C234.34 220.764 234.458 221.528 234.458 222.375V223.802H225.25V221.604H231.031V221.333C231.038 220.958 230.972 220.639 230.833 220.375C230.701 220.111 230.507 219.91 230.25 219.771C229.993 219.632 229.681 219.562 229.312 219.562C228.931 219.562 228.615 219.646 228.365 219.812C228.122 219.979 227.931 220.208 227.792 220.5C227.66 220.785 227.566 221.115 227.51 221.49C227.455 221.865 227.427 222.26 227.427 222.677V223.073C227.427 223.49 227.483 223.868 227.594 224.208C227.712 224.549 227.878 224.84 228.094 225.083C228.316 225.319 228.58 225.503 228.885 225.635C229.198 225.767 229.552 225.833 229.948 225.833C230.427 225.833 230.899 225.743 231.365 225.562C231.83 225.382 232.229 225.083 232.562 224.667L234.156 226.562C233.927 226.889 233.601 227.205 233.177 227.51C232.76 227.816 232.26 228.066 231.677 228.26C231.094 228.448 230.441 228.542 229.719 228.542ZM239.427 219.854V228.333H235.917V217.062H239.198L239.427 219.854ZM242.76 216.979L242.698 220.24C242.559 220.226 242.372 220.208 242.135 220.187C241.899 220.167 241.701 220.156 241.542 220.156C241.132 220.156 240.778 220.205 240.479 220.302C240.187 220.392 239.944 220.531 239.75 220.719C239.562 220.899 239.424 221.128 239.333 221.406C239.25 221.684 239.212 222.007 239.219 222.375L238.583 221.958C238.583 221.201 238.656 220.514 238.802 219.896C238.955 219.271 239.17 218.733 239.448 218.281C239.726 217.823 240.062 217.472 240.458 217.229C240.854 216.979 241.299 216.854 241.792 216.854C241.965 216.854 242.135 216.865 242.302 216.885C242.476 216.906 242.628 216.937 242.76 216.979Z" fill="white"/>
<rect x="339" y="196.333" width="208" height="49.3333" rx="4.66667" fill="#888888" stroke="#888888" stroke-width="4"/>
<path d="M427.51 223.573V213.167H431.156V223.573C431.156 224.587 430.924 225.465 430.458 226.208C430 226.951 429.375 227.528 428.583 227.937C427.799 228.34 426.917 228.542 425.937 228.542C424.924 228.542 424.021 228.372 423.229 228.031C422.444 227.691 421.826 227.167 421.375 226.458C420.931 225.75 420.708 224.847 420.708 223.75H424.375C424.375 224.264 424.434 224.667 424.552 224.958C424.67 225.243 424.844 225.444 425.073 225.562C425.309 225.674 425.597 225.729 425.937 225.729C426.271 225.729 426.552 225.646 426.781 225.479C427.017 225.306 427.198 225.059 427.323 224.74C427.448 224.413 427.51 224.024 427.51 223.573ZM439.167 225.5V220.854C439.167 220.535 439.122 220.26 439.031 220.031C438.941 219.802 438.799 219.625 438.604 219.5C438.41 219.368 438.149 219.302 437.823 219.302C437.559 219.302 437.333 219.347 437.146 219.437C436.958 219.528 436.816 219.663 436.719 219.844C436.622 220.024 436.573 220.253 436.573 220.531H433.062C433.062 220.01 433.177 219.528 433.406 219.083C433.642 218.632 433.976 218.24 434.406 217.906C434.844 217.573 435.365 217.316 435.969 217.135C436.58 216.948 437.26 216.854 438.01 216.854C438.906 216.854 439.705 217.003 440.406 217.302C441.115 217.601 441.674 218.049 442.083 218.646C442.493 219.236 442.698 219.979 442.698 220.875V225.49C442.698 226.226 442.74 226.785 442.823 227.167C442.906 227.542 443.024 227.872 443.177 228.156V228.333H439.656C439.49 227.986 439.365 227.562 439.281 227.062C439.205 226.556 439.167 226.035 439.167 225.5ZM439.594 221.448L439.615 223.323H438.062C437.736 223.323 437.458 223.368 437.229 223.458C437.007 223.549 436.826 223.674 436.687 223.833C436.556 223.986 436.458 224.16 436.396 224.354C436.34 224.549 436.312 224.753 436.312 224.969C436.312 225.177 436.361 225.365 436.458 225.531C436.562 225.691 436.701 225.816 436.875 225.906C437.049 225.997 437.243 226.042 437.458 226.042C437.847 226.042 438.177 225.969 438.448 225.823C438.726 225.67 438.937 225.486 439.083 225.271C439.229 225.056 439.302 224.854 439.302 224.667L440.073 226.104C439.934 226.382 439.774 226.663 439.594 226.948C439.42 227.233 439.201 227.497 438.937 227.74C438.681 227.976 438.365 228.17 437.99 228.323C437.615 228.469 437.16 228.542 436.625 228.542C435.931 228.542 435.292 228.399 434.708 228.115C434.132 227.83 433.67 227.434 433.323 226.927C432.976 226.413 432.802 225.823 432.802 225.156C432.802 224.573 432.906 224.052 433.115 223.594C433.33 223.135 433.653 222.747 434.083 222.427C434.514 222.108 435.062 221.865 435.729 221.698C436.396 221.531 437.181 221.448 438.083 221.448H439.594ZM448.542 225.927L450.76 217.062H454.458L450.771 228.333H448.583L448.542 225.927ZM447.229 217.062L449.417 225.927L449.396 228.333H447.198L443.521 217.062H447.229ZM461.188 225.5V220.854C461.188 220.535 461.142 220.26 461.052 220.031C460.962 219.802 460.819 219.625 460.625 219.5C460.431 219.368 460.17 219.302 459.844 219.302C459.58 219.302 459.354 219.347 459.167 219.437C458.979 219.528 458.837 219.663 458.74 219.844C458.642 220.024 458.594 220.253 458.594 220.531H455.083C455.083 220.01 455.198 219.528 455.427 219.083C455.663 218.632 455.997 218.24 456.427 217.906C456.865 217.573 457.385 217.316 457.99 217.135C458.601 216.948 459.281 216.854 460.031 216.854C460.927 216.854 461.726 217.003 462.427 217.302C463.135 217.601 463.694 218.049 464.104 218.646C464.514 219.236 464.719 219.979 464.719 220.875V225.49C464.719 226.226 464.76 226.785 464.844 227.167C464.927 227.542 465.045 227.872 465.198 228.156V228.333H461.677C461.51 227.986 461.385 227.562 461.302 227.062C461.226 226.556 461.188 226.035 461.188 225.5ZM461.615 221.448L461.635 223.323H460.083C459.757 223.323 459.479 223.368 459.25 223.458C459.028 223.549 458.847 223.674 458.708 223.833C458.576 223.986 458.479 224.16 458.417 224.354C458.361 224.549 458.333 224.753 458.333 224.969C458.333 225.177 458.382 225.365 458.479 225.531C458.583 225.691 458.722 225.816 458.896 225.906C459.069 225.997 459.264 226.042 459.479 226.042C459.868 226.042 460.198 225.969 460.469 225.823C460.747 225.67 460.958 225.486 461.104 225.271C461.25 225.056 461.323 224.854 461.323 224.667L462.094 226.104C461.955 226.382 461.795 226.663 461.615 226.948C461.441 227.233 461.222 227.497 460.958 227.74C460.701 227.976 460.385 228.17 460.01 228.323C459.635 228.469 459.181 228.542 458.646 228.542C457.951 228.542 457.313 228.399 456.729 228.115C456.153 227.83 455.691 227.434 455.344 226.927C454.997 226.413 454.823 225.823 454.823 225.156C454.823 224.573 454.927 224.052 455.135 223.594C455.351 223.135 455.674 222.747 456.104 222.427C456.535 222.108 457.083 221.865 457.75 221.698C458.417 221.531 459.201 221.448 460.104 221.448H461.615Z" fill="white"/>
<rect x="571" y="196.333" width="208" height="49.3333" rx="4.66667" fill="#888888" stroke="#888888" stroke-width="4"/>
<path d="M630.458 224.302C630.458 224.066 630.424 223.854 630.354 223.667C630.285 223.472 630.156 223.292 629.969 223.125C629.781 222.958 629.51 222.792 629.156 222.625C628.809 222.451 628.351 222.271 627.781 222.083C627.115 221.861 626.472 221.611 625.854 221.333C625.236 221.049 624.684 220.719 624.198 220.344C623.712 219.962 623.326 219.517 623.042 219.01C622.757 218.497 622.615 217.899 622.615 217.219C622.615 216.566 622.76 215.979 623.052 215.458C623.344 214.931 623.75 214.483 624.271 214.115C624.799 213.74 625.417 213.455 626.125 213.26C626.833 213.059 627.608 212.958 628.448 212.958C629.559 212.958 630.538 213.153 631.385 213.542C632.24 213.924 632.906 214.469 633.385 215.177C633.872 215.878 634.115 216.708 634.115 217.667H630.479C630.479 217.285 630.399 216.948 630.24 216.656C630.087 216.365 629.854 216.135 629.542 215.969C629.229 215.802 628.837 215.719 628.365 215.719C627.906 215.719 627.521 215.788 627.208 215.927C626.896 216.066 626.66 216.253 626.5 216.49C626.34 216.719 626.26 216.972 626.26 217.25C626.26 217.479 626.323 217.687 626.448 217.875C626.58 218.056 626.764 218.226 627 218.385C627.243 218.545 627.535 218.698 627.875 218.844C628.222 218.99 628.611 219.132 629.042 219.271C629.847 219.528 630.562 219.816 631.187 220.135C631.819 220.448 632.351 220.806 632.781 221.208C633.219 221.604 633.549 222.056 633.771 222.562C634 223.069 634.115 223.642 634.115 224.281C634.115 224.962 633.983 225.566 633.719 226.094C633.455 226.622 633.076 227.069 632.583 227.437C632.09 227.799 631.5 228.073 630.812 228.26C630.125 228.448 629.358 228.542 628.51 228.542C627.733 228.542 626.965 228.444 626.208 228.25C625.458 228.049 624.778 227.743 624.167 227.333C623.556 226.917 623.066 226.385 622.698 225.74C622.337 225.087 622.156 224.312 622.156 223.417H625.823C625.823 223.861 625.882 224.236 626 224.542C626.118 224.847 626.292 225.094 626.521 225.281C626.75 225.462 627.031 225.594 627.365 225.677C627.698 225.753 628.08 225.792 628.51 225.792C628.976 225.792 629.351 225.726 629.635 225.594C629.92 225.455 630.128 225.274 630.26 225.052C630.392 224.823 630.458 224.573 630.458 224.302ZM639.375 219.229V232.667H635.865V217.062H639.135L639.375 219.229ZM646.292 222.562V222.781C646.292 223.601 646.198 224.361 646.01 225.062C645.823 225.764 645.545 226.375 645.177 226.896C644.809 227.417 644.351 227.823 643.802 228.115C643.26 228.399 642.632 228.542 641.917 228.542C641.243 228.542 640.663 228.392 640.177 228.094C639.691 227.795 639.285 227.382 638.958 226.854C638.632 226.326 638.368 225.722 638.167 225.042C637.965 224.361 637.806 223.642 637.688 222.885V222.604C637.806 221.792 637.965 221.038 638.167 220.344C638.368 219.642 638.632 219.031 638.958 218.51C639.285 217.99 639.688 217.583 640.167 217.292C640.653 217 641.233 216.854 641.906 216.854C642.622 216.854 643.25 216.99 643.792 217.26C644.34 217.531 644.799 217.92 645.167 218.427C645.542 218.927 645.823 219.528 646.01 220.229C646.198 220.931 646.292 221.708 646.292 222.562ZM642.781 222.781V222.562C642.781 222.125 642.75 221.726 642.688 221.365C642.625 220.997 642.524 220.677 642.385 220.406C642.253 220.135 642.076 219.927 641.854 219.781C641.632 219.635 641.358 219.562 641.031 219.562C640.656 219.562 640.34 219.622 640.083 219.74C639.833 219.851 639.632 220.024 639.479 220.26C639.333 220.49 639.229 220.778 639.167 221.125C639.111 221.465 639.087 221.865 639.094 222.323V223.177C639.08 223.705 639.132 224.17 639.25 224.573C639.368 224.969 639.573 225.278 639.865 225.5C640.156 225.722 640.552 225.833 641.052 225.833C641.385 225.833 641.663 225.757 641.885 225.604C642.108 225.444 642.285 225.226 642.417 224.948C642.549 224.663 642.642 224.337 642.698 223.969C642.753 223.601 642.781 223.205 642.781 222.781ZM651.396 219.854V228.333H647.885V217.062H651.167L651.396 219.854ZM654.729 216.979L654.667 220.24C654.528 220.226 654.34 220.208 654.104 220.187C653.868 220.167 653.67 220.156 653.51 220.156C653.101 220.156 652.747 220.205 652.448 220.302C652.156 220.392 651.913 220.531 651.719 220.719C651.531 220.899 651.392 221.128 651.302 221.406C651.219 221.684 651.181 222.007 651.187 222.375L650.552 221.958C650.552 221.201 650.625 220.514 650.771 219.896C650.924 219.271 651.139 218.733 651.417 218.281C651.694 217.823 652.031 217.472 652.427 217.229C652.823 216.979 653.267 216.854 653.76 216.854C653.934 216.854 654.104 216.865 654.271 216.885C654.444 216.906 654.597 216.937 654.729 216.979ZM659.646 217.062V228.333H656.125V217.062H659.646ZM655.917 214.156C655.917 213.656 656.097 213.247 656.458 212.927C656.819 212.608 657.288 212.448 657.865 212.448C658.441 212.448 658.91 212.608 659.271 212.927C659.632 213.247 659.813 213.656 659.813 214.156C659.813 214.656 659.632 215.066 659.271 215.385C658.91 215.705 658.441 215.865 657.865 215.865C657.288 215.865 656.819 215.705 656.458 215.385C656.097 215.066 655.917 214.656 655.917 214.156ZM665.26 219.469V228.333H661.75V217.062H665.042L665.26 219.469ZM664.844 222.312L664.021 222.333C664.021 221.472 664.125 220.705 664.333 220.031C664.542 219.351 664.837 218.774 665.219 218.302C665.601 217.83 666.056 217.472 666.583 217.229C667.118 216.979 667.712 216.854 668.365 216.854C668.885 216.854 669.361 216.931 669.792 217.083C670.229 217.236 670.604 217.483 670.917 217.823C671.236 218.163 671.479 218.615 671.646 219.177C671.819 219.733 671.906 220.42 671.906 221.24V228.333H668.375V221.229C668.375 220.778 668.313 220.434 668.188 220.198C668.063 219.955 667.882 219.788 667.646 219.698C667.41 219.608 667.122 219.562 666.781 219.562C666.42 219.562 666.115 219.632 665.865 219.771C665.615 219.91 665.413 220.104 665.26 220.354C665.115 220.597 665.007 220.885 664.938 221.219C664.875 221.552 664.844 221.917 664.844 222.312ZM680.937 217.062H684.125V227.896C684.125 228.937 683.885 229.819 683.406 230.542C682.927 231.271 682.257 231.823 681.396 232.198C680.542 232.58 679.542 232.771 678.396 232.771C677.889 232.771 677.372 232.705 676.844 232.573C676.316 232.448 675.823 232.26 675.365 232.01C674.906 231.76 674.521 231.451 674.208 231.083L675.677 229.021C675.962 229.34 676.319 229.611 676.75 229.833C677.181 230.062 677.687 230.177 678.271 230.177C678.778 230.177 679.201 230.087 679.542 229.906C679.889 229.726 680.153 229.462 680.333 229.115C680.514 228.774 680.604 228.361 680.604 227.875V219.729L680.937 217.062ZM673.448 222.833V222.615C673.448 221.76 673.552 220.983 673.76 220.281C673.976 219.573 674.281 218.965 674.677 218.458C675.08 217.944 675.566 217.549 676.135 217.271C676.705 216.993 677.347 216.854 678.062 216.854C678.833 216.854 679.465 217.003 679.958 217.302C680.458 217.594 680.858 218.003 681.156 218.531C681.462 219.059 681.698 219.677 681.865 220.385C682.038 221.087 682.184 221.844 682.302 222.656V222.917C682.184 223.681 682.021 224.403 681.812 225.083C681.611 225.757 681.347 226.354 681.021 226.875C680.694 227.396 680.285 227.806 679.792 228.104C679.306 228.396 678.722 228.542 678.042 228.542C677.333 228.542 676.694 228.399 676.125 228.115C675.562 227.83 675.08 227.431 674.677 226.917C674.281 226.403 673.976 225.799 673.76 225.104C673.552 224.41 673.448 223.653 673.448 222.833ZM676.958 222.615V222.833C676.958 223.257 676.997 223.649 677.073 224.01C677.156 224.372 677.281 224.691 677.448 224.969C677.615 225.24 677.819 225.451 678.062 225.604C678.312 225.757 678.604 225.833 678.937 225.833C679.444 225.833 679.854 225.726 680.167 225.51C680.479 225.295 680.705 224.99 680.844 224.594C680.983 224.198 681.042 223.733 681.021 223.198V222.375C681.035 221.917 681.003 221.514 680.927 221.167C680.851 220.812 680.729 220.517 680.562 220.281C680.403 220.045 680.187 219.868 679.917 219.75C679.653 219.625 679.333 219.562 678.958 219.562C678.632 219.562 678.344 219.639 678.094 219.792C677.844 219.944 677.635 220.16 677.469 220.437C677.302 220.708 677.174 221.031 677.083 221.406C677 221.774 676.958 222.177 676.958 222.615ZM686.177 212.333H689.688V225.562L689.323 228.333H686.177V212.333ZM696.604 222.573V222.792C696.604 223.646 696.517 224.424 696.344 225.125C696.17 225.826 695.903 226.434 695.542 226.948C695.181 227.455 694.726 227.847 694.177 228.125C693.628 228.403 692.979 228.542 692.229 228.542C691.549 228.542 690.965 228.396 690.479 228.104C689.993 227.806 689.587 227.396 689.26 226.875C688.934 226.347 688.67 225.74 688.469 225.052C688.267 224.358 688.108 223.615 687.99 222.823V222.562C688.108 221.778 688.267 221.042 688.469 220.354C688.67 219.66 688.934 219.052 689.26 218.531C689.587 218.003 689.99 217.594 690.469 217.302C690.955 217.003 691.535 216.854 692.208 216.854C692.965 216.854 693.618 216.997 694.167 217.281C694.722 217.566 695.181 217.965 695.542 218.479C695.903 218.993 696.17 219.597 696.344 220.292C696.517 220.986 696.604 221.747 696.604 222.573ZM693.094 222.792V222.573C693.094 222.163 693.069 221.778 693.021 221.417C692.972 221.056 692.885 220.736 692.76 220.458C692.635 220.181 692.458 219.962 692.229 219.802C692 219.642 691.701 219.562 691.333 219.562C690.958 219.562 690.642 219.625 690.385 219.75C690.135 219.875 689.934 220.056 689.781 220.292C689.635 220.521 689.531 220.806 689.469 221.146C689.406 221.479 689.378 221.858 689.385 222.281V223.104C689.372 223.681 689.424 224.174 689.542 224.583C689.66 224.993 689.865 225.306 690.156 225.521C690.448 225.736 690.847 225.844 691.354 225.844C691.729 225.844 692.031 225.771 692.26 225.625C692.497 225.479 692.674 225.271 692.792 225C692.91 224.729 692.99 224.406 693.031 224.031C693.073 223.656 693.094 223.243 693.094 222.792ZM697.729 222.812V222.594C697.729 221.767 697.847 221.007 698.083 220.312C698.319 219.611 698.667 219.003 699.125 218.49C699.583 217.976 700.149 217.576 700.823 217.292C701.497 217 702.274 216.854 703.156 216.854C704.045 216.854 704.826 217 705.5 217.292C706.181 217.576 706.75 217.976 707.208 218.49C707.667 219.003 708.014 219.611 708.25 220.312C708.486 221.007 708.604 221.767 708.604 222.594V222.812C708.604 223.632 708.486 224.392 708.25 225.094C708.014 225.788 707.667 226.396 707.208 226.917C706.75 227.431 706.184 227.83 705.51 228.115C704.837 228.399 704.059 228.542 703.177 228.542C702.295 228.542 701.514 228.399 700.833 228.115C700.153 227.83 699.583 227.431 699.125 226.917C698.667 226.396 698.319 225.788 698.083 225.094C697.847 224.392 697.729 223.632 697.729 222.812ZM701.24 222.594V222.812C701.24 223.236 701.271 223.632 701.333 224C701.396 224.368 701.5 224.691 701.646 224.969C701.792 225.24 701.99 225.451 702.24 225.604C702.49 225.757 702.802 225.833 703.177 225.833C703.545 225.833 703.851 225.757 704.094 225.604C704.344 225.451 704.542 225.24 704.687 224.969C704.833 224.691 704.937 224.368 705 224C705.062 223.632 705.094 223.236 705.094 222.812V222.594C705.094 222.184 705.062 221.799 705 221.437C704.937 221.069 704.833 220.747 704.687 220.469C704.542 220.184 704.344 219.962 704.094 219.802C703.844 219.642 703.531 219.562 703.156 219.562C702.788 219.562 702.479 219.642 702.229 219.802C701.986 219.962 701.792 220.184 701.646 220.469C701.5 220.747 701.396 221.069 701.333 221.437C701.271 221.799 701.24 222.184 701.24 222.594ZM709.729 222.812V222.594C709.729 221.767 709.847 221.007 710.083 220.312C710.319 219.611 710.667 219.003 711.125 218.49C711.583 217.976 712.149 217.576 712.823 217.292C713.497 217 714.274 216.854 715.156 216.854C716.045 216.854 716.826 217 717.5 217.292C718.181 217.576 718.75 217.976 719.208 218.49C719.667 219.003 720.014 219.611 720.25 220.312C720.486 221.007 720.604 221.767 720.604 222.594V222.812C720.604 223.632 720.486 224.392 720.25 225.094C720.014 225.788 719.667 226.396 719.208 226.917C718.75 227.431 718.184 227.83 717.51 228.115C716.837 228.399 716.059 228.542 715.177 228.542C714.295 228.542 713.514 228.399 712.833 228.115C712.153 227.83 711.583 227.431 711.125 226.917C710.667 226.396 710.319 225.788 710.083 225.094C709.847 224.392 709.729 223.632 709.729 222.812ZM713.24 222.594V222.812C713.24 223.236 713.271 223.632 713.333 224C713.396 224.368 713.5 224.691 713.646 224.969C713.792 225.24 713.99 225.451 714.24 225.604C714.49 225.757 714.802 225.833 715.177 225.833C715.545 225.833 715.851 225.757 716.094 225.604C716.344 225.451 716.542 225.24 716.687 224.969C716.833 224.691 716.937 224.368 717 224C717.062 223.632 717.094 223.236 717.094 222.812V222.594C717.094 222.184 717.062 221.799 717 221.437C716.937 221.069 716.833 220.747 716.687 220.469C716.542 220.184 716.344 219.962 716.094 219.802C715.844 219.642 715.531 219.562 715.156 219.562C714.788 219.562 714.479 219.642 714.229 219.802C713.986 219.962 713.792 220.184 713.646 220.469C713.5 220.747 713.396 221.069 713.333 221.437C713.271 221.799 713.24 222.184 713.24 222.594ZM728.104 217.062V219.5H721.312V217.062H728.104ZM722.74 214.26H726.25V224.656C726.25 224.955 726.285 225.187 726.354 225.354C726.424 225.514 726.542 225.628 726.708 225.698C726.882 225.76 727.111 225.792 727.396 225.792C727.597 225.792 727.764 225.788 727.896 225.781C728.028 225.767 728.153 225.75 728.271 225.729V228.24C727.972 228.337 727.66 228.41 727.333 228.458C727.007 228.514 726.66 228.542 726.292 228.542C725.542 228.542 724.899 228.424 724.365 228.187C723.837 227.951 723.434 227.58 723.156 227.073C722.878 226.566 722.74 225.906 722.74 225.094V214.26Z" fill="white"/>
<rect x="803" y="196.333" width="208" height="49.3333" rx="4.66667" fill="#888888" stroke="#888888" stroke-width="4"/>
<path d="M875.26 213.167H878.24L881.625 223.719L885.01 213.167H887.99L882.833 228.333H880.417L875.26 213.167ZM873.448 213.167H876.531L877.104 224.792V228.333H873.448V213.167ZM886.719 213.167H889.812V228.333H886.146V224.792L886.719 213.167ZM895.448 227.01L898.365 217.062H902.135L897.604 230.01C897.507 230.295 897.378 230.601 897.219 230.927C897.059 231.26 896.84 231.576 896.563 231.875C896.285 232.174 895.927 232.417 895.49 232.604C895.059 232.792 894.524 232.885 893.885 232.885C893.545 232.885 893.295 232.868 893.135 232.833C892.983 232.806 892.747 232.753 892.427 232.677V230.167C892.517 230.167 892.594 230.167 892.656 230.167C892.726 230.167 892.802 230.167 892.885 230.167C893.26 230.167 893.559 230.128 893.781 230.052C894.01 229.976 894.184 229.865 894.302 229.719C894.427 229.573 894.524 229.396 894.594 229.187L895.448 227.01ZM894.708 217.062L896.927 224.948L897.313 228.667H894.958L890.948 217.062H894.708ZM911.031 224.302C911.031 224.066 910.997 223.854 910.927 223.667C910.858 223.472 910.729 223.292 910.542 223.125C910.354 222.958 910.083 222.792 909.729 222.625C909.382 222.451 908.924 222.271 908.354 222.083C907.688 221.861 907.045 221.611 906.427 221.333C905.809 221.049 905.257 220.719 904.771 220.344C904.285 219.962 903.899 219.517 903.615 219.01C903.33 218.497 903.188 217.899 903.188 217.219C903.188 216.566 903.333 215.979 903.625 215.458C903.917 214.931 904.323 214.483 904.844 214.115C905.372 213.74 905.99 213.455 906.698 213.26C907.406 213.059 908.181 212.958 909.021 212.958C910.132 212.958 911.111 213.153 911.958 213.542C912.813 213.924 913.479 214.469 913.958 215.177C914.444 215.878 914.688 216.708 914.688 217.667H911.052C911.052 217.285 910.972 216.948 910.813 216.656C910.66 216.365 910.427 216.135 910.115 215.969C909.802 215.802 909.41 215.719 908.938 215.719C908.479 215.719 908.094 215.788 907.781 215.927C907.469 216.066 907.233 216.253 907.073 216.49C906.913 216.719 906.833 216.972 906.833 217.25C906.833 217.479 906.896 217.687 907.021 217.875C907.153 218.056 907.337 218.226 907.573 218.385C907.816 218.545 908.108 218.698 908.448 218.844C908.795 218.99 909.184 219.132 909.615 219.271C910.42 219.528 911.135 219.816 911.76 220.135C912.392 220.448 912.924 220.806 913.354 221.208C913.792 221.604 914.122 222.056 914.344 222.562C914.573 223.069 914.688 223.642 914.688 224.281C914.688 224.962 914.556 225.566 914.292 226.094C914.028 226.622 913.649 227.069 913.156 227.437C912.663 227.799 912.073 228.073 911.385 228.26C910.698 228.448 909.931 228.542 909.083 228.542C908.306 228.542 907.538 228.444 906.781 228.25C906.031 228.049 905.351 227.743 904.74 227.333C904.128 226.917 903.639 226.385 903.271 225.74C902.91 225.087 902.729 224.312 902.729 223.417H906.396C906.396 223.861 906.455 224.236 906.573 224.542C906.691 224.847 906.865 225.094 907.094 225.281C907.323 225.462 907.604 225.594 907.938 225.677C908.271 225.753 908.653 225.792 909.083 225.792C909.549 225.792 909.924 225.726 910.208 225.594C910.493 225.455 910.701 225.274 910.833 225.052C910.965 224.823 911.031 224.573 911.031 224.302ZM925.031 225.833L929.26 229.187L926.99 231.104L922.833 227.75L925.031 225.833ZM929.437 220.448V221.062C929.437 222.222 929.274 223.264 928.948 224.187C928.628 225.104 928.17 225.889 927.573 226.542C926.983 227.187 926.285 227.684 925.479 228.031C924.674 228.372 923.785 228.542 922.812 228.542C921.833 228.542 920.937 228.372 920.125 228.031C919.319 227.684 918.618 227.187 918.021 226.542C917.431 225.889 916.972 225.104 916.646 224.187C916.326 223.264 916.167 222.222 916.167 221.062V220.448C916.167 219.288 916.326 218.247 916.646 217.323C916.972 216.399 917.427 215.615 918.01 214.969C918.601 214.316 919.299 213.819 920.104 213.479C920.917 213.132 921.812 212.958 922.792 212.958C923.764 212.958 924.653 213.132 925.458 213.479C926.271 213.819 926.972 214.316 927.562 214.969C928.16 215.615 928.622 216.399 928.948 217.323C929.274 218.247 929.437 219.288 929.437 220.448ZM925.719 221.062V220.427C925.719 219.677 925.653 219.017 925.521 218.448C925.396 217.872 925.208 217.389 924.958 217C924.708 216.611 924.399 216.319 924.031 216.125C923.67 215.924 923.257 215.823 922.792 215.823C922.306 215.823 921.882 215.924 921.521 216.125C921.16 216.319 920.858 216.611 920.615 217C920.372 217.389 920.187 217.872 920.062 218.448C919.944 219.017 919.885 219.677 919.885 220.427V221.062C919.885 221.806 919.944 222.465 920.062 223.042C920.187 223.611 920.372 224.094 920.615 224.49C920.865 224.885 921.17 225.184 921.531 225.385C921.899 225.587 922.326 225.687 922.812 225.687C923.278 225.687 923.691 225.587 924.052 225.385C924.413 225.184 924.715 224.885 924.958 224.49C925.208 224.094 925.396 223.611 925.521 223.042C925.653 222.465 925.719 221.806 925.719 221.062ZM941.323 225.521V228.333H933.656V225.521H941.323ZM934.958 213.167V228.333H931.302V213.167H934.958Z" fill="white"/>
</svg>
