<svg width="1363" height="167" viewBox="0 0 1363 167" fill="none" xmlns="http://www.w3.org/2000/svg">
<rect width="1363" height="167" rx="15" fill="#FDFDFB"/>
<path d="M0 15C0 6.71573 6.71573 0 15 0H37V167H15C6.71573 167 0 160.284 0 152V15Z" fill="#424241"/>
<path d="M100.906 54.9219L93.3945 52.2383V49.0859L103.602 53.375V55.6367L100.906 54.9219ZM93.3945 57.1719L100.918 54.4297L103.602 53.7852V56.0352L93.3945 60.3242V57.1719ZM118.578 54.5117H114.195L114.172 52.0977H117.852C118.5 52.0977 119.031 52.0156 119.445 51.8516C119.859 51.6797 120.168 51.4336 120.371 51.1133C120.582 50.7852 120.688 50.3867 120.688 49.918C120.688 49.3867 120.586 48.957 120.383 48.6289C120.188 48.3008 119.879 48.0625 119.457 47.9141C119.043 47.7656 118.508 47.6914 117.852 47.6914H115.414V62H111.898V44.9375H117.852C118.844 44.9375 119.73 45.0312 120.512 45.2188C121.301 45.4062 121.969 45.6914 122.516 46.0742C123.062 46.457 123.48 46.9414 123.77 47.5273C124.059 48.1055 124.203 48.793 124.203 49.5898C124.203 50.293 124.043 50.9414 123.723 51.5352C123.41 52.1289 122.914 52.6133 122.234 52.9883C121.562 53.3633 120.684 53.5703 119.598 53.6094L118.578 54.5117ZM118.426 62H113.234L114.605 59.2578H118.426C119.043 59.2578 119.547 59.1602 119.938 58.9648C120.328 58.7617 120.617 58.4883 120.805 58.1445C120.992 57.8008 121.086 57.4062 121.086 56.9609C121.086 56.4609 121 56.0273 120.828 55.6602C120.664 55.293 120.398 55.0117 120.031 54.8164C119.664 54.6133 119.18 54.5117 118.578 54.5117H115.191L115.215 52.0977H119.434L120.242 53.0469C121.281 53.0312 122.117 53.2148 122.75 53.5977C123.391 53.9727 123.855 54.4609 124.145 55.0625C124.441 55.6641 124.59 56.3086 124.59 56.9961C124.59 58.0898 124.352 59.0117 123.875 59.7617C123.398 60.5039 122.699 61.0625 121.777 61.4375C120.863 61.8125 119.746 62 118.426 62ZM134.516 58.9648V49.3203H137.891V62H134.715L134.516 58.9648ZM134.891 56.3633L135.887 56.3398C135.887 57.1836 135.789 57.9688 135.594 58.6953C135.398 59.4141 135.105 60.0391 134.715 60.5703C134.324 61.0938 133.832 61.5039 133.238 61.8008C132.645 62.0898 131.945 62.2344 131.141 62.2344C130.523 62.2344 129.953 62.1484 129.43 61.9766C128.914 61.7969 128.469 61.5195 128.094 61.1445C127.727 60.7617 127.438 60.2734 127.227 59.6797C127.023 59.0781 126.922 58.3555 126.922 57.5117V49.3203H130.297V57.5352C130.297 57.9102 130.34 58.2266 130.426 58.4844C130.52 58.7422 130.648 58.9531 130.812 59.1172C130.977 59.2812 131.168 59.3984 131.387 59.4688C131.613 59.5391 131.863 59.5742 132.137 59.5742C132.832 59.5742 133.379 59.4336 133.777 59.1523C134.184 58.8711 134.469 58.4883 134.633 58.0039C134.805 57.5117 134.891 56.9648 134.891 56.3633ZM146.68 49.3203V51.7109H139.297V49.3203H146.68ZM141.125 46.1914H144.5V58.1797C144.5 58.5469 144.547 58.8281 144.641 59.0234C144.742 59.2188 144.891 59.3555 145.086 59.4336C145.281 59.5039 145.527 59.5391 145.824 59.5391C146.035 59.5391 146.223 59.5312 146.387 59.5156C146.559 59.4922 146.703 59.4688 146.82 59.4453L146.832 61.9297C146.543 62.0234 146.23 62.0977 145.895 62.1523C145.559 62.207 145.188 62.2344 144.781 62.2344C144.039 62.2344 143.391 62.1133 142.836 61.8711C142.289 61.6211 141.867 61.2227 141.57 60.6758C141.273 60.1289 141.125 59.4102 141.125 58.5195V46.1914ZM152.164 44V62H148.777V44H152.164ZM160.789 62.2344C159.805 62.2344 158.922 62.0781 158.141 61.7656C157.359 61.4453 156.695 61.0039 156.148 60.4414C155.609 59.8789 155.195 59.2266 154.906 58.4844C154.617 57.7344 154.473 56.9375 154.473 56.0938V55.625C154.473 54.6641 154.609 53.7852 154.883 52.9883C155.156 52.1914 155.547 51.5 156.055 50.9141C156.57 50.3281 157.195 49.8789 157.93 49.5664C158.664 49.2461 159.492 49.0859 160.414 49.0859C161.312 49.0859 162.109 49.2344 162.805 49.5312C163.5 49.8281 164.082 50.25 164.551 50.7969C165.027 51.3438 165.387 52 165.629 52.7656C165.871 53.5234 165.992 54.3672 165.992 55.2969V56.7031H155.914V54.4531H162.676V54.1953C162.676 53.7266 162.59 53.3086 162.418 52.9414C162.254 52.5664 162.004 52.2695 161.668 52.0508C161.332 51.832 160.902 51.7227 160.379 51.7227C159.934 51.7227 159.551 51.8203 159.23 52.0156C158.91 52.2109 158.648 52.4844 158.445 52.8359C158.25 53.1875 158.102 53.6016 158 54.0781C157.906 54.5469 157.859 55.0625 157.859 55.625V56.0938C157.859 56.6016 157.93 57.0703 158.07 57.5C158.219 57.9297 158.426 58.3008 158.691 58.6133C158.965 58.9258 159.293 59.168 159.676 59.3398C160.066 59.5117 160.508 59.5977 161 59.5977C161.609 59.5977 162.176 59.4805 162.699 59.2461C163.23 59.0039 163.688 58.6406 164.07 58.1562L165.711 59.9375C165.445 60.3203 165.082 60.6875 164.621 61.0391C164.168 61.3906 163.621 61.6797 162.98 61.9062C162.34 62.125 161.609 62.2344 160.789 62.2344ZM171.289 52.0859V62H167.914V49.3203H171.09L171.289 52.0859ZM175.109 49.2383L175.051 52.3672C174.887 52.3438 174.688 52.3242 174.453 52.3086C174.227 52.2852 174.02 52.2734 173.832 52.2734C173.355 52.2734 172.941 52.3359 172.59 52.4609C172.246 52.5781 171.957 52.7539 171.723 52.9883C171.496 53.2227 171.324 53.5078 171.207 53.8438C171.098 54.1797 171.035 54.5625 171.02 54.9922L170.34 54.7812C170.34 53.9609 170.422 53.207 170.586 52.5195C170.75 51.8242 170.988 51.2188 171.301 50.7031C171.621 50.1875 172.012 49.7891 172.473 49.5078C172.934 49.2266 173.461 49.0859 174.055 49.0859C174.242 49.0859 174.434 49.1016 174.629 49.1328C174.824 49.1562 174.984 49.1914 175.109 49.2383ZM186.805 56.3398H190.309C190.238 57.4883 189.922 58.5078 189.359 59.3984C188.805 60.2891 188.027 60.9844 187.027 61.4844C186.035 61.9844 184.84 62.2344 183.441 62.2344C182.348 62.2344 181.367 62.0469 180.5 61.6719C179.633 61.2891 178.891 60.7422 178.273 60.0312C177.664 59.3203 177.199 58.4609 176.879 57.4531C176.559 56.4453 176.398 55.3164 176.398 54.0664V52.8828C176.398 51.6328 176.562 50.5039 176.891 49.4961C177.227 48.4805 177.703 47.6172 178.32 46.9062C178.945 46.1953 179.691 45.6484 180.559 45.2656C181.426 44.8828 182.395 44.6914 183.465 44.6914C184.887 44.6914 186.086 44.9492 187.062 45.4648C188.047 45.9805 188.809 46.6914 189.348 47.5977C189.895 48.5039 190.223 49.5352 190.332 50.6914H186.816C186.777 50.0039 186.641 49.4219 186.406 48.9453C186.172 48.4609 185.816 48.0977 185.34 47.8555C184.871 47.6055 184.246 47.4805 183.465 47.4805C182.879 47.4805 182.367 47.5898 181.93 47.8086C181.492 48.0273 181.125 48.3594 180.828 48.8047C180.531 49.25 180.309 49.8125 180.16 50.4922C180.02 51.1641 179.949 51.9531 179.949 52.8594V54.0664C179.949 54.9492 180.016 55.7266 180.148 56.3984C180.281 57.0625 180.484 57.625 180.758 58.0859C181.039 58.5391 181.398 58.8828 181.836 59.1172C182.281 59.3438 182.816 59.457 183.441 59.457C184.176 59.457 184.781 59.3398 185.258 59.1055C185.734 58.8711 186.098 58.5234 186.348 58.0625C186.605 57.6016 186.758 57.0273 186.805 56.3398ZM195.699 44V62H192.324V44H195.699ZM195.219 55.2148H194.293C194.301 54.332 194.418 53.5195 194.645 52.7773C194.871 52.0273 195.195 51.3789 195.617 50.832C196.039 50.2773 196.543 49.8477 197.129 49.543C197.723 49.2383 198.379 49.0859 199.098 49.0859C199.723 49.0859 200.289 49.1758 200.797 49.3555C201.312 49.5273 201.754 49.8086 202.121 50.1992C202.496 50.582 202.785 51.0859 202.988 51.7109C203.191 52.3359 203.293 53.0938 203.293 53.9844V62H199.895V53.9609C199.895 53.3984 199.812 52.957 199.648 52.6367C199.492 52.3086 199.262 52.0781 198.957 51.9453C198.66 51.8047 198.293 51.7344 197.855 51.7344C197.371 51.7344 196.957 51.8242 196.613 52.0039C196.277 52.1836 196.008 52.4336 195.805 52.7539C195.602 53.0664 195.453 53.4336 195.359 53.8555C195.266 54.2773 195.219 54.7305 195.219 55.2148ZM211.695 62.2344C210.711 62.2344 209.828 62.0781 209.047 61.7656C208.266 61.4453 207.602 61.0039 207.055 60.4414C206.516 59.8789 206.102 59.2266 205.812 58.4844C205.523 57.7344 205.379 56.9375 205.379 56.0938V55.625C205.379 54.6641 205.516 53.7852 205.789 52.9883C206.062 52.1914 206.453 51.5 206.961 50.9141C207.477 50.3281 208.102 49.8789 208.836 49.5664C209.57 49.2461 210.398 49.0859 211.32 49.0859C212.219 49.0859 213.016 49.2344 213.711 49.5312C214.406 49.8281 214.988 50.25 215.457 50.7969C215.934 51.3438 216.293 52 216.535 52.7656C216.777 53.5234 216.898 54.3672 216.898 55.2969V56.7031H206.82V54.4531H213.582V54.1953C213.582 53.7266 213.496 53.3086 213.324 52.9414C213.16 52.5664 212.91 52.2695 212.574 52.0508C212.238 51.832 211.809 51.7227 211.285 51.7227C210.84 51.7227 210.457 51.8203 210.137 52.0156C209.816 52.2109 209.555 52.4844 209.352 52.8359C209.156 53.1875 209.008 53.6016 208.906 54.0781C208.812 54.5469 208.766 55.0625 208.766 55.625V56.0938C208.766 56.6016 208.836 57.0703 208.977 57.5C209.125 57.9297 209.332 58.3008 209.598 58.6133C209.871 58.9258 210.199 59.168 210.582 59.3398C210.973 59.5117 211.414 59.5977 211.906 59.5977C212.516 59.5977 213.082 59.4805 213.605 59.2461C214.137 59.0039 214.594 58.6406 214.977 58.1562L216.617 59.9375C216.352 60.3203 215.988 60.6875 215.527 61.0391C215.074 61.3906 214.527 61.6797 213.887 61.9062C213.246 62.125 212.516 62.2344 211.695 62.2344ZM223.121 62H219.723V48.1953C219.723 47.2344 219.91 46.4258 220.285 45.7695C220.668 45.1055 221.203 44.6055 221.891 44.2695C222.586 43.9258 223.41 43.7539 224.363 43.7539C224.676 43.7539 224.977 43.7773 225.266 43.8242C225.555 43.8633 225.836 43.9141 226.109 43.9766L226.074 46.5195C225.926 46.4805 225.77 46.4531 225.605 46.4375C225.441 46.4219 225.25 46.4141 225.031 46.4141C224.625 46.4141 224.277 46.4844 223.988 46.625C223.707 46.7578 223.492 46.957 223.344 47.2227C223.195 47.4883 223.121 47.8125 223.121 48.1953V62ZM225.652 49.3203V51.7109H217.836V49.3203H225.652Z" fill="#888888"/>
<path d="M101.822 115.1L108.194 86.0078H111.995L114.061 88.4907L107.271 118H103.074L101.822 115.1ZM100.13 86.0078L105.513 115.319L104.129 118H99.2729L92.4834 86.0078H100.13ZM117.554 115.166L122.894 86.0078H130.518L123.729 118H118.895L117.554 115.166ZM114.742 86.0078L121.268 115.275L119.949 118H115.752L108.809 88.4468L110.962 86.0078H114.742ZM141.021 94.2256V118H133.594V94.2256H141.021ZM133.155 88.0952C133.155 87.0405 133.536 86.1763 134.297 85.5024C135.059 84.8286 136.048 84.4917 137.264 84.4917C138.479 84.4917 139.468 84.8286 140.23 85.5024C140.992 86.1763 141.373 87.0405 141.373 88.0952C141.373 89.1499 140.992 90.0142 140.23 90.688C139.468 91.3618 138.479 91.6987 137.264 91.6987C136.048 91.6987 135.059 91.3618 134.297 90.688C133.536 90.0142 133.155 89.1499 133.155 88.0952ZM153.062 100.114V118H145.657V94.2256H152.579L153.062 100.114ZM160.093 94.0498L159.961 100.927C159.668 100.898 159.273 100.861 158.775 100.817C158.277 100.773 157.859 100.751 157.522 100.751C156.658 100.751 155.911 100.854 155.281 101.059C154.666 101.25 154.153 101.542 153.743 101.938C153.348 102.319 153.055 102.802 152.864 103.388C152.688 103.974 152.608 104.655 152.623 105.432L151.282 104.553C151.282 102.956 151.436 101.506 151.744 100.202C152.066 98.8838 152.52 97.7485 153.106 96.7964C153.692 95.8296 154.402 95.0898 155.237 94.5771C156.072 94.0498 157.01 93.7861 158.05 93.7861C158.416 93.7861 158.775 93.8081 159.126 93.8521C159.493 93.896 159.815 93.9619 160.093 94.0498ZM173.716 118.439C171.783 118.439 170.054 118.139 168.531 117.539C167.007 116.923 165.718 116.081 164.664 115.012C163.624 113.942 162.825 112.712 162.269 111.32C161.727 109.929 161.456 108.457 161.456 106.904V106.069C161.456 104.326 161.697 102.714 162.181 101.235C162.664 99.7407 163.382 98.437 164.334 97.3237C165.286 96.2104 166.48 95.3462 167.916 94.731C169.351 94.1011 171.021 93.7861 172.925 93.7861C174.61 93.7861 176.119 94.0571 177.452 94.5991C178.785 95.1411 179.913 95.9175 180.835 96.9282C181.773 97.939 182.483 99.1621 182.967 100.598C183.465 102.033 183.714 103.645 183.714 105.432V108.442H164.29V103.806H176.485V103.234C176.5 102.443 176.36 101.77 176.067 101.213C175.789 100.656 175.379 100.231 174.837 99.9385C174.295 99.6455 173.636 99.499 172.859 99.499C172.054 99.499 171.387 99.6748 170.86 100.026C170.347 100.378 169.944 100.861 169.651 101.477C169.373 102.077 169.175 102.773 169.058 103.564C168.941 104.355 168.882 105.19 168.882 106.069V106.904C168.882 107.783 169 108.581 169.234 109.299C169.483 110.017 169.834 110.632 170.289 111.145C170.757 111.643 171.314 112.031 171.958 112.309C172.618 112.587 173.365 112.727 174.2 112.727C175.21 112.727 176.207 112.536 177.188 112.155C178.169 111.774 179.012 111.145 179.715 110.266L183.077 114.265C182.593 114.953 181.905 115.62 181.011 116.264C180.132 116.909 179.078 117.436 177.847 117.846C176.617 118.242 175.24 118.439 173.716 118.439ZM195.799 118H188.35V92.292C188.35 90.4463 188.724 88.8936 189.471 87.6338C190.218 86.374 191.272 85.4219 192.635 84.7773C193.997 84.1182 195.608 83.7886 197.469 83.7886C198.113 83.7886 198.721 83.8325 199.292 83.9204C199.864 84.0083 200.42 84.1182 200.962 84.25L200.984 89.6992C200.721 89.626 200.45 89.5747 200.171 89.5454C199.893 89.5161 199.549 89.5015 199.139 89.5015C198.421 89.5015 197.813 89.6113 197.315 89.8311C196.817 90.0361 196.436 90.3511 196.172 90.7759C195.923 91.186 195.799 91.6914 195.799 92.292V118ZM200.413 94.2256V99.3672H184.922V94.2256H200.413ZM210.542 100.114V118H203.138V94.2256H210.059L210.542 100.114ZM217.574 94.0498L217.442 100.927C217.149 100.898 216.753 100.861 216.255 100.817C215.757 100.773 215.34 100.751 215.003 100.751C214.139 100.751 213.392 100.854 212.762 101.059C212.146 101.25 211.634 101.542 211.224 101.938C210.828 102.319 210.535 102.802 210.345 103.388C210.169 103.974 210.088 104.655 210.103 105.432L208.763 104.553C208.763 102.956 208.917 101.506 209.224 100.202C209.546 98.8838 210 97.7485 210.586 96.7964C211.172 95.8296 211.883 95.0898 212.718 94.5771C213.553 94.0498 214.49 93.7861 215.53 93.7861C215.896 93.7861 216.255 93.8081 216.607 93.8521C216.973 93.896 217.295 93.9619 217.574 94.0498ZM231.812 112.023V102.224C231.812 101.55 231.717 100.971 231.526 100.488C231.336 100.004 231.036 99.6309 230.625 99.3672C230.215 99.0889 229.666 98.9497 228.978 98.9497C228.421 98.9497 227.945 99.0449 227.549 99.2354C227.154 99.4258 226.854 99.7114 226.648 100.092C226.443 100.473 226.341 100.957 226.341 101.542H218.936C218.936 100.444 219.178 99.4258 219.661 98.4883C220.159 97.5361 220.862 96.7085 221.771 96.0054C222.693 95.3022 223.792 94.7603 225.066 94.3794C226.355 93.9839 227.791 93.7861 229.373 93.7861C231.263 93.7861 232.947 94.1011 234.427 94.731C235.921 95.3608 237.1 96.3057 237.964 97.5654C238.829 98.8105 239.261 100.378 239.261 102.268V112.001C239.261 113.554 239.349 114.733 239.524 115.539C239.7 116.33 239.949 117.026 240.271 117.626V118H232.845C232.493 117.268 232.229 116.374 232.054 115.319C231.893 114.25 231.812 113.151 231.812 112.023ZM232.713 103.476L232.757 107.431H229.483C228.794 107.431 228.208 107.526 227.725 107.717C227.256 107.907 226.875 108.171 226.583 108.508C226.304 108.83 226.099 109.196 225.967 109.606C225.85 110.017 225.792 110.449 225.792 110.903C225.792 111.342 225.894 111.738 226.099 112.089C226.319 112.426 226.612 112.69 226.978 112.88C227.344 113.071 227.754 113.166 228.208 113.166C229.029 113.166 229.725 113.012 230.296 112.705C230.882 112.382 231.329 111.994 231.636 111.54C231.944 111.086 232.098 110.661 232.098 110.266L233.724 113.298C233.431 113.884 233.094 114.477 232.713 115.078C232.347 115.678 231.885 116.235 231.329 116.748C230.787 117.246 230.12 117.656 229.329 117.978C228.538 118.286 227.579 118.439 226.451 118.439C224.986 118.439 223.638 118.139 222.408 117.539C221.192 116.938 220.218 116.103 219.485 115.034C218.753 113.95 218.387 112.705 218.387 111.298C218.387 110.068 218.606 108.969 219.046 108.002C219.5 107.036 220.181 106.215 221.089 105.542C221.998 104.868 223.155 104.355 224.561 104.003C225.967 103.652 227.623 103.476 229.527 103.476H232.713ZM250.84 99.2573V118H243.436V94.2256H250.379L250.84 99.2573ZM249.939 105.3L248.248 105.344C248.248 103.674 248.445 102.136 248.841 100.729C249.236 99.3232 249.822 98.1001 250.599 97.0601C251.375 96.02 252.327 95.2144 253.455 94.6431C254.598 94.0718 255.916 93.7861 257.41 93.7861C258.45 93.7861 259.395 93.9473 260.245 94.2695C261.094 94.5771 261.827 95.0679 262.442 95.7417C263.057 96.4009 263.526 97.2651 263.848 98.3345C264.185 99.3892 264.354 100.656 264.354 102.136V118H256.949V103.081C256.949 102.07 256.832 101.308 256.597 100.795C256.377 100.283 256.055 99.9385 255.63 99.7627C255.206 99.5869 254.686 99.499 254.07 99.499C253.426 99.499 252.847 99.6455 252.334 99.9385C251.822 100.231 251.382 100.642 251.016 101.169C250.665 101.682 250.394 102.29 250.203 102.993C250.027 103.696 249.939 104.465 249.939 105.3ZM263.519 105.3L261.453 105.344C261.453 103.674 261.636 102.136 262.002 100.729C262.383 99.3232 262.947 98.1001 263.694 97.0601C264.456 96.02 265.401 95.2144 266.529 94.6431C267.657 94.0718 268.968 93.7861 270.462 93.7861C271.546 93.7861 272.542 93.9473 273.45 94.2695C274.358 94.5918 275.142 95.1118 275.801 95.8296C276.46 96.5474 276.973 97.4995 277.339 98.686C277.706 99.8579 277.889 101.308 277.889 103.037V118H270.462V103.037C270.462 102.055 270.345 101.315 270.11 100.817C269.891 100.305 269.568 99.9604 269.144 99.7847C268.719 99.5942 268.213 99.499 267.627 99.499C266.924 99.499 266.316 99.6455 265.804 99.9385C265.291 100.231 264.859 100.642 264.507 101.169C264.17 101.682 263.921 102.29 263.76 102.993C263.599 103.696 263.519 104.465 263.519 105.3ZM293.643 118.439C291.709 118.439 289.981 118.139 288.458 117.539C286.934 116.923 285.645 116.081 284.59 115.012C283.55 113.942 282.752 112.712 282.195 111.32C281.653 109.929 281.382 108.457 281.382 106.904V106.069C281.382 104.326 281.624 102.714 282.107 101.235C282.591 99.7407 283.309 98.437 284.261 97.3237C285.213 96.2104 286.407 95.3462 287.842 94.731C289.278 94.1011 290.948 93.7861 292.852 93.7861C294.537 93.7861 296.045 94.0571 297.378 94.5991C298.711 95.1411 299.839 95.9175 300.762 96.9282C301.7 97.939 302.41 99.1621 302.894 100.598C303.392 102.033 303.641 103.645 303.641 105.432V108.442H284.217V103.806H296.412V103.234C296.426 102.443 296.287 101.77 295.994 101.213C295.716 100.656 295.306 100.231 294.764 99.9385C294.222 99.6455 293.562 99.499 292.786 99.499C291.98 99.499 291.314 99.6748 290.787 100.026C290.274 100.378 289.871 100.861 289.578 101.477C289.3 102.077 289.102 102.773 288.985 103.564C288.868 104.355 288.809 105.19 288.809 106.069V106.904C288.809 107.783 288.926 108.581 289.161 109.299C289.41 110.017 289.761 110.632 290.215 111.145C290.684 111.643 291.241 112.031 291.885 112.309C292.544 112.587 293.292 112.727 294.126 112.727C295.137 112.727 296.133 112.536 297.115 112.155C298.096 111.774 298.938 111.145 299.642 110.266L303.003 114.265C302.52 114.953 301.832 115.62 300.938 116.264C300.059 116.909 299.004 117.436 297.774 117.846C296.543 118.242 295.167 118.439 293.643 118.439ZM319.109 111.32C319.109 110.91 318.97 110.559 318.692 110.266C318.428 109.958 317.959 109.68 317.286 109.431C316.612 109.167 315.667 108.903 314.451 108.64C313.294 108.391 312.203 108.061 311.177 107.651C310.167 107.241 309.28 106.743 308.519 106.157C307.757 105.571 307.156 104.875 306.717 104.069C306.292 103.264 306.08 102.341 306.08 101.301C306.08 100.29 306.292 99.3379 306.717 98.4443C307.156 97.5361 307.793 96.7378 308.628 96.0493C309.478 95.3462 310.511 94.7969 311.727 94.4014C312.942 93.9912 314.327 93.7861 315.879 93.7861C318.018 93.7861 319.864 94.1157 321.417 94.7749C322.969 95.4194 324.163 96.3276 324.998 97.4995C325.848 98.6567 326.272 99.9971 326.272 101.521H318.868C318.868 100.92 318.765 100.407 318.56 99.9824C318.37 99.5576 318.055 99.2354 317.615 99.0156C317.176 98.7812 316.59 98.6641 315.857 98.6641C315.345 98.6641 314.876 98.7593 314.451 98.9497C314.041 99.1401 313.711 99.4038 313.462 99.7407C313.213 100.078 313.089 100.473 313.089 100.927C313.089 101.25 313.162 101.542 313.309 101.806C313.47 102.055 313.711 102.29 314.034 102.509C314.356 102.714 314.766 102.905 315.264 103.081C315.762 103.242 316.363 103.388 317.066 103.52C318.663 103.813 320.157 104.23 321.548 104.772C322.94 105.314 324.068 106.083 324.932 107.08C325.811 108.076 326.25 109.416 326.25 111.101C326.25 112.155 326.009 113.129 325.525 114.023C325.042 114.902 324.346 115.678 323.438 116.352C322.53 117.011 321.438 117.524 320.164 117.89C318.89 118.256 317.454 118.439 315.857 118.439C313.587 118.439 311.668 118.037 310.101 117.231C308.533 116.411 307.347 115.385 306.541 114.155C305.75 112.91 305.354 111.65 305.354 110.375H312.254C312.283 111.108 312.459 111.708 312.781 112.177C313.118 112.646 313.565 112.99 314.122 113.21C314.678 113.43 315.323 113.54 316.055 113.54C316.729 113.54 317.286 113.444 317.725 113.254C318.179 113.063 318.523 112.807 318.758 112.485C318.992 112.148 319.109 111.76 319.109 111.32Z" fill="#424241"/>
<path d="M1363 15C1363 6.71573 1356.28 0 1348 0H1134V167H1348C1356.28 167 1363 160.284 1363 152V15Z" fill="#5ACE7F"/>
<path fill-rule="evenodd" clip-rule="evenodd" d="M1203 49C1203 47.8954 1203.9 47 1205 47H1292.5C1293.6 47 1294.5 47.8954 1294.5 49V118.996C1294.5 120.101 1293.6 120.996 1292.5 120.996H1205C1203.9 120.996 1203 120.101 1203 118.996V49ZM1207 51V55.4945H1290.5V51H1207ZM1290.5 59.4945H1235.44V116.996H1290.5V59.4945ZM1231.44 116.996V59.4945H1207V116.996H1231.44Z" fill="white"/>
<path fill-rule="evenodd" clip-rule="evenodd" d="M1209.97 64.8004C1209.97 63.6958 1210.87 62.8004 1211.97 62.8004H1225.97C1227.08 62.8004 1227.97 63.6958 1227.97 64.8004V84.1956C1227.97 85.3001 1227.08 86.1956 1225.97 86.1956H1211.97C1210.87 86.1956 1209.97 85.3001 1209.97 84.1956V64.8004ZM1213.97 66.8004V82.1956H1223.97V66.8004H1213.97ZM1239.58 65.6964C1239.58 64.5918 1240.47 63.6964 1241.58 63.6964H1284.5C1285.61 63.6964 1286.5 64.5918 1286.5 65.6964V111.905C1286.5 113.01 1285.61 113.905 1284.5 113.905H1241.58C1240.47 113.905 1239.58 113.01 1239.58 111.905V65.6964ZM1243.58 67.6964V109.905H1282.5V67.6964H1243.58ZM1209.81 95.9363C1209.81 94.8317 1210.71 93.9363 1211.81 93.9363H1220.73C1221.84 93.9363 1222.73 94.8317 1222.73 95.9363C1222.73 97.0409 1221.84 97.9363 1220.73 97.9363H1211.81C1210.71 97.9363 1209.81 97.0409 1209.81 95.9363ZM1209.81 102.936C1209.81 101.832 1210.71 100.936 1211.81 100.936H1226.35C1227.46 100.936 1228.35 101.832 1228.35 102.936C1228.35 104.041 1227.46 104.936 1226.35 104.936H1211.81C1210.71 104.936 1209.81 104.041 1209.81 102.936ZM1209.81 109.936C1209.81 108.832 1210.71 107.936 1211.81 107.936H1220.73C1221.84 107.936 1222.73 108.832 1222.73 109.936C1222.73 111.041 1221.84 111.936 1220.73 111.936H1211.81C1210.71 111.936 1209.81 111.041 1209.81 109.936Z" fill="white"/>
</svg>
